<svg width="14" height="16" viewBox="0 0 14 16" fill="none" xmlns="http://www.w3.org/2000/svg">
<path d="M12.4899 5.9362L6.87338 8.18279V2.1335C6.87338 2.00261 6.76726 1.89648 6.63637 1.89648C4.86372 1.89648 3.19719 2.58679 1.94375 3.84023C0.690331 5.09367 0 6.7602 0 8.53286C0 10.3055 0.690301 11.972 1.94375 13.2255C3.19719 14.4789 4.86375 15.1692 6.63637 15.1692C8.40899 15.1692 10.0756 14.4789 11.329 13.2255C12.5824 11.972 13.2727 10.3055 13.2727 8.53286C13.2727 7.68423 13.113 6.85498 12.7979 6.06815C12.7493 5.94663 12.6114 5.88767 12.4899 5.9362ZM6.39936 7.8307L3.09444 3.49298C4.03675 2.82878 5.17267 2.42165 6.39936 2.37498V7.8307ZM6.63637 14.6952C3.23846 14.6952 0.474027 11.9308 0.474027 8.53286C0.474027 6.62214 1.34834 4.91191 2.71771 3.78071L6.44783 8.67648C6.44978 8.67906 6.45203 8.68128 6.45408 8.68374C6.45701 8.68727 6.45991 8.69079 6.46303 8.69417C6.4667 8.69814 6.47055 8.70182 6.47443 8.70546C6.47733 8.70819 6.48018 8.71094 6.4832 8.71352C6.48785 8.71746 6.49268 8.72104 6.49757 8.7246C6.49958 8.72605 6.50139 8.72774 6.50344 8.72913C6.50418 8.72964 6.50498 8.72999 6.50572 8.73046C6.5112 8.73408 6.51686 8.73728 6.52257 8.74042C6.52515 8.74184 6.52767 8.74341 6.53028 8.74472C6.5362 8.74768 6.54231 8.75017 6.54844 8.75263C6.55108 8.75369 6.55362 8.75494 6.55626 8.75588C6.56281 8.75823 6.56947 8.76006 6.5762 8.76181C6.57854 8.76243 6.58082 8.76329 6.58319 8.76382C6.59208 8.76587 6.60106 8.76738 6.61012 8.76839C6.61374 8.7688 6.61738 8.76877 6.62102 8.76901C6.62618 8.76934 6.6313 8.76987 6.63646 8.76987C6.63684 8.76987 6.6372 8.76978 6.63759 8.76978C6.64887 8.76972 6.66019 8.76877 6.67142 8.76708C6.67453 8.76661 6.67755 8.76584 6.68066 8.76525C6.68878 8.76371 6.69681 8.76178 6.70478 8.75935C6.70869 8.75817 6.71254 8.75689 6.71642 8.7555C6.71903 8.75455 6.7217 8.75393 6.7243 8.75289L12.4417 6.46595C12.6786 7.12997 12.7986 7.82413 12.7986 8.53286C12.7987 11.9308 10.0343 14.6952 6.63637 14.6952Z" fill="black"/>
<path d="M13.9826 4.17167C13.4952 2.95449 12.6654 1.91631 11.5828 1.16942C11.5325 1.13473 11.4817 1.10104 11.4306 1.06786C11.4284 1.06632 11.4261 1.0649 11.4238 1.06345C10.3505 0.367252 9.10905 0 7.821 0C7.69011 0 7.58398 0.106123 7.58398 0.237013V1.18501V1.18515V2.37007V2.37022V3.55514V3.55529V4.74021V4.74035V5.92527V5.92542V6.63637C7.58398 6.715 7.623 6.78856 7.68812 6.83265C7.72791 6.85958 7.77431 6.87338 7.821 6.87338C7.85074 6.87338 7.88061 6.86781 7.90902 6.85644L8.57452 6.59024C8.57568 6.59024 8.57683 6.59042 8.57802 6.59042C8.63798 6.59042 8.69792 6.5677 8.74402 6.52246L10.6739 5.7505C10.6748 5.75018 10.6756 5.74982 10.6765 5.74947L12.6493 4.96036C12.65 4.96006 12.6507 4.9598 12.6514 4.95953L13.8506 4.47985C13.9089 4.4565 13.9557 4.4109 13.9804 4.35313C14.0052 4.29527 14.0059 4.23 13.9826 4.17167ZM11.5703 4.88138L13.0598 3.39187C13.1258 3.49855 13.1884 3.60752 13.248 3.71835L12.4281 4.53827L11.5703 4.88138ZM9.59516 5.67143L12.5641 2.70251C12.6422 2.79661 12.717 2.89337 12.7893 2.99194L10.453 5.32829L9.59516 5.67143ZM11.623 1.78809L8.05801 5.35312V4.83845L11.3272 1.56929C11.4283 1.63945 11.5268 1.71257 11.623 1.78809ZM8.05801 1.28325L8.79118 0.550078C8.936 0.57295 9.07966 0.600947 9.22192 0.63401L8.05801 1.79792V1.28325ZM8.05801 2.46832L9.74575 0.780573C9.87282 0.822317 9.99844 0.868357 10.1226 0.918426L8.05801 2.98299V2.46832ZM8.05801 3.65338L10.5842 1.12718C10.697 1.18397 10.8083 1.24435 10.9178 1.30828L8.05804 4.16806V3.65338H8.05801ZM8.18609 0.484811L8.05804 0.612857V0.4785C8.10079 0.48013 8.14345 0.482322 8.18609 0.484811ZM8.05801 6.02351L11.986 2.09552C12.0756 2.17765 12.1623 2.26259 12.2466 2.3496L8.47785 6.11835L8.05801 6.28627V6.02351Z" fill="black"/>
</svg>
