<svg viewBox="0 0 25 25" fill="none" xmlns="http://www.w3.org/2000/svg">
<path d="M22.9011 2.76154H21.592V1.87729C21.592 1.10254 20.9616 0.472168 20.1869 0.472168C19.4121 0.472168 18.7817 1.10254 18.7817 1.87729V2.76154H16.4593V1.87729C16.4593 1.10254 15.829 0.472168 15.0542 0.472168C14.2794 0.472168 13.649 1.10254 13.649 1.87729V2.76154H11.3266V1.87729C11.3267 1.10254 10.6963 0.472168 9.92149 0.472168C9.1467 0.472168 8.51637 1.10254 8.51637 1.87729V2.76154H6.19397V1.87729C6.19392 1.10254 5.56364 0.472168 4.7888 0.472168C4.01396 0.472168 3.38368 1.10254 3.38368 1.87729V2.76154H2.07457C1.23217 2.76154 0.546875 3.44688 0.546875 4.28924V7.42809C0.546875 7.62171 0.703801 7.77863 0.897417 7.77863H24.0784C24.272 7.77863 24.4289 7.62171 24.4289 7.42809V4.28924C24.4288 3.44688 23.7435 2.76154 22.9011 2.76154ZM19.4828 1.87729C19.4828 1.48907 19.7987 1.17321 20.1869 1.17321C20.5751 1.17321 20.891 1.48907 20.891 1.87729V4.40802C20.891 4.79624 20.5751 5.1121 20.1869 5.1121C19.7987 5.1121 19.4828 4.79624 19.4828 4.40802V1.87729ZM14.3501 1.87729C14.3501 1.48907 14.6659 1.17321 15.0541 1.17321C15.4424 1.17321 15.7582 1.48907 15.7582 1.87729V4.40802C15.7582 4.79624 15.4424 5.1121 15.0541 5.1121C14.6659 5.1121 14.3501 4.79624 14.3501 4.40802V1.87729ZM9.21736 1.87729C9.21736 1.48907 9.53318 1.17321 9.92145 1.17321C10.3097 1.17321 10.6255 1.48907 10.6255 1.87729V4.40802C10.6255 4.79624 10.3097 5.1121 9.92145 5.1121C9.53323 5.1121 9.21736 4.79624 9.21736 4.40802V1.87729ZM4.08472 1.87729C4.08472 1.48907 4.40054 1.17321 4.7888 1.17321C5.17706 1.17321 5.49288 1.48907 5.49288 1.87729V4.40802C5.49288 4.79624 5.17702 5.1121 4.7888 5.1121C4.40059 5.1121 4.08472 4.79624 4.08472 4.40802V1.87729ZM23.7278 7.07759H1.24787V4.28924C1.24787 3.83336 1.61874 3.46258 2.07453 3.46258H3.38364V4.40807C3.38364 5.18286 4.01401 5.81324 4.78876 5.81324C5.56355 5.81324 6.19392 5.18286 6.19392 4.40807V3.46253H8.51633V4.40802C8.51633 5.18281 9.1467 5.81319 9.92145 5.81319C10.6962 5.81319 11.3266 5.18281 11.3266 4.40802V3.46253H13.649V4.40802C13.649 5.18281 14.2794 5.81319 15.0542 5.81319C15.829 5.81319 16.4593 5.18281 16.4593 4.40802V3.46253H18.7817V4.40802C18.7817 5.18281 19.4121 5.81319 20.1869 5.81319C20.9617 5.81319 21.592 5.18281 21.592 4.40802V3.46253H22.9011C23.3569 3.46253 23.7278 3.83336 23.7278 4.28919V7.07759H23.7278Z" fill="#003B4D"/>
<path d="M24.0765 8.70854C23.8829 8.70854 23.7259 8.86547 23.7259 9.05909V22.9356C23.7259 23.3915 23.355 23.7623 22.8992 23.7623H2.07267C1.61684 23.7623 1.24601 23.3914 1.24601 22.9356V9.05904C1.24601 8.86542 1.08908 8.7085 0.895464 8.7085C0.701848 8.7085 0.544922 8.86542 0.544922 9.05904V22.9355C0.544922 23.778 1.23026 24.4633 2.07262 24.4633H22.8992C23.7416 24.4633 24.4269 23.7779 24.4269 22.9355V9.05904C24.4269 8.86547 24.27 8.70854 24.0765 8.70854Z" fill="#003B4D"/>
<path d="M5.51691 10.7314H3.40336C3.04417 10.7314 2.75195 11.0237 2.75195 11.3828V13.4964C2.75199 13.8556 3.04421 14.1478 3.40336 14.1478H5.51691C5.8761 14.1478 6.16832 13.8556 6.16832 13.4964V11.3828C6.16832 11.0236 5.8761 10.7314 5.51691 10.7314ZM5.56792 13.4964C5.56792 13.5245 5.54504 13.5474 5.51691 13.5474H3.40336C3.37523 13.5474 3.35235 13.5245 3.35235 13.4964V11.3828C3.35235 11.3547 3.37523 11.3318 3.40336 11.3318H5.51691C5.54504 11.3318 5.56792 11.3546 5.56792 11.3828V13.4964Z" fill="#003B4D"/>
<path d="M10.7357 10.7314H8.62211C8.26292 10.7314 7.9707 11.0237 7.9707 11.3828V13.4964C7.97074 13.8556 8.26296 14.1478 8.62211 14.1478H10.7357C11.0949 14.1478 11.3871 13.8556 11.3871 13.4964V11.3828C11.3871 11.0236 11.0949 10.7314 10.7357 10.7314ZM10.7867 13.4964C10.7867 13.5245 10.7638 13.5474 10.7357 13.5474H8.62211C8.59398 13.5474 8.5711 13.5245 8.5711 13.4964V11.3828C8.5711 11.3547 8.59398 11.3318 8.62211 11.3318H10.7357C10.7638 11.3318 10.7867 11.3546 10.7867 11.3828V13.4964Z" fill="#003B4D"/>
<path d="M15.9525 10.7314H13.8389C13.4797 10.7314 13.1875 11.0237 13.1875 11.3828V13.4964C13.1875 13.8556 13.4798 14.1478 13.8389 14.1478H15.9525C16.3116 14.1478 16.6039 13.8556 16.6039 13.4964V11.3828C16.6039 11.0236 16.3116 10.7314 15.9525 10.7314ZM16.0035 13.4964C16.0035 13.5245 15.9806 13.5474 15.9525 13.5474H13.8389C13.8108 13.5474 13.7879 13.5245 13.7879 13.4964V11.3828C13.7879 11.3547 13.8108 11.3318 13.8389 11.3318H15.9525C15.9806 11.3318 16.0035 11.3546 16.0035 11.3828V13.4964Z" fill="#003B4D"/>
<path d="M21.1712 10.7314H19.0577C18.6985 10.7314 18.4062 11.0237 18.4062 11.3828V13.4964C18.4062 13.8556 18.6985 14.1478 19.0577 14.1478H21.1712C21.5304 14.1478 21.8226 13.8556 21.8226 13.4964V11.3828C21.8226 11.0236 21.5304 10.7314 21.1712 10.7314ZM21.2222 13.4964C21.2222 13.5245 21.1993 13.5474 21.1712 13.5474H19.0577C19.0295 13.5474 19.0066 13.5245 19.0066 13.4964V11.3828C19.0066 11.3547 19.0295 11.3318 19.0576 11.3318H21.1712C21.1993 11.3318 21.2222 11.3546 21.2222 11.3828V13.4964Z" fill="#003B4D"/>
<path d="M5.51699 16.9468H3.40336C3.04417 16.9468 2.75195 17.239 2.75195 17.5982V19.7117H2.75199C2.75199 20.0709 3.04421 20.3631 3.4034 20.3631H5.51695C5.87614 20.3631 6.16836 20.0709 6.16836 19.7117V17.5982C6.1684 17.239 5.87618 16.9468 5.51699 16.9468ZM5.56796 19.7117C5.56796 19.7399 5.54508 19.7628 5.51695 19.7628H3.4034C3.37527 19.7628 3.35239 19.7399 3.35239 19.7117V17.5982C3.35239 17.57 3.37527 17.5471 3.4034 17.5471H5.51695C5.54508 17.5471 5.56796 17.57 5.56796 17.5982V19.7117Z" fill="#003B4D"/>
<path d="M10.7337 16.9468H8.62015C8.26096 16.9468 7.96875 17.239 7.96875 17.5982V19.7117C7.96875 20.0709 8.26096 20.3631 8.62015 20.3631H10.7337C11.0929 20.3631 11.3851 20.0709 11.3851 19.7117V17.5982C11.3851 17.239 11.0929 16.9468 10.7337 16.9468ZM10.7848 19.7117C10.7848 19.7399 10.7619 19.7628 10.7338 19.7628H8.62019C8.59206 19.7628 8.56919 19.7399 8.56919 19.7117V17.5982C8.56919 17.57 8.59206 17.5471 8.62019 17.5471H10.7338C10.7619 17.5471 10.7848 17.57 10.7848 17.5982V19.7117Z" fill="#003B4D"/>
<path d="M15.9525 16.9468H13.8389C13.4797 16.9468 13.1875 17.239 13.1875 17.5982V19.7117C13.1875 20.0709 13.4797 20.3631 13.8389 20.3631H15.9525C16.3116 20.3631 16.6039 20.0709 16.6039 19.7117V17.5982C16.6039 17.239 16.3116 16.9468 15.9525 16.9468ZM16.0034 19.7117C16.0034 19.7399 15.9805 19.7628 15.9524 19.7628H13.8389C13.8107 19.7628 13.7879 19.7399 13.7879 19.7117V17.5982C13.7879 17.57 13.8107 17.5471 13.8389 17.5471H15.9524C15.9805 17.5471 16.0034 17.57 16.0034 17.5982V19.7117Z" fill="#003B4D"/>
<path d="M21.1712 16.9468H19.0577C18.6985 16.9468 18.4062 17.239 18.4062 17.5982V19.7117C18.4062 20.0709 18.6985 20.3631 19.0577 20.3631H21.1712C21.5304 20.3631 21.8226 20.0709 21.8226 19.7117V17.5982C21.8226 17.239 21.5304 16.9468 21.1712 16.9468ZM21.2222 19.7117C21.2222 19.7399 21.1993 19.7628 21.1712 19.7628H19.0576C19.0295 19.7628 19.0066 19.7399 19.0066 19.7117V17.5982C19.0066 17.57 19.0295 17.5471 19.0576 17.5471H21.1712C21.1993 17.5471 21.2222 17.57 21.2222 17.5982V19.7117Z" fill="#003B4D"/>
</svg>
