<svg viewBox="0 0 22 23" fill="none" xmlns="http://www.w3.org/2000/svg">
<path d="M8.59961 6.04899C8.59961 7.37441 9.11806 8.90458 9.9865 10.1422C10.9706 11.5446 12.2136 12.3169 13.4864 12.3169C14.7593 12.3169 16.0023 11.5446 16.9864 10.1422C17.8549 8.90458 18.3734 7.37441 18.3734 6.04899C18.3734 3.35437 16.1811 1.16211 13.4865 1.16211C10.7919 1.16211 8.59961 3.35437 8.59961 6.04899ZM13.4864 1.95899C15.7417 1.95899 17.5764 3.79377 17.5764 6.04899C17.5764 7.19942 17.1004 8.59241 16.3341 9.68446C15.5155 10.851 14.4776 11.52 13.4864 11.52C12.4953 11.52 11.4573 10.851 10.6388 9.68446C9.87244 8.59241 9.39643 7.19936 9.39643 6.04899C9.39643 3.79377 11.2312 1.95899 13.4864 1.95899Z" fill="#003B4D"/>
<path d="M20.649 14.503C19.788 13.1668 18.5758 12.1 17.1435 11.4181C16.9914 11.3457 16.8102 11.3768 16.6908 11.4958C15.7308 12.4531 14.6232 12.9591 13.4877 12.9591C12.3521 12.9591 11.2447 12.4531 10.2853 11.4958C10.166 11.3768 9.98469 11.3457 9.83259 11.4181C8.40023 12.0999 7.18791 13.1667 6.32675 14.503C5.44216 15.8756 4.97461 17.468 4.97461 19.1082V19.1151C4.97461 19.2275 5.0221 19.3347 5.10535 19.4102C7.4044 21.4952 10.3813 22.6435 13.4877 22.6435C16.5941 22.6435 19.571 21.4952 21.8701 19.4103C21.9534 19.3348 22.0009 19.2275 22.0009 19.1151V19.1082C22.0009 17.468 21.5334 15.8755 20.649 14.503ZM13.4877 21.8466C10.6391 21.8466 7.90664 20.815 5.77329 18.9384C5.80427 17.5117 6.2256 16.1309 6.99655 14.9347C7.72793 13.7998 8.73842 12.8795 9.9305 12.2594C10.9954 13.2397 12.2199 13.756 13.4877 13.756C14.7553 13.756 15.98 13.2396 17.0455 12.2594C18.2374 12.8793 19.2479 13.7997 19.9791 14.9346C20.7499 16.1308 21.1712 17.5116 21.2021 18.9384C19.0688 20.8151 16.3363 21.8466 13.4877 21.8466Z" fill="#003B4D"/>
<path d="M7.39858 9.73094C7.84552 9.73094 8.29151 9.62188 8.72416 9.40677C8.9212 9.30881 9.00153 9.0697 8.90362 8.87265C8.80571 8.67561 8.56659 8.59529 8.3695 8.6932C8.04793 8.85305 7.72126 8.93407 7.39853 8.93407C6.5617 8.93407 5.68279 8.36547 4.98723 7.3741C4.33251 6.44095 3.92578 5.25137 3.92578 4.26967C3.92578 2.35478 5.48368 0.796878 7.39858 0.796878C8.30245 0.796878 9.15835 1.1424 9.80871 1.76992C9.96702 1.92265 10.2193 1.91819 10.3721 1.75983C10.5249 1.60146 10.5204 1.34922 10.362 1.19643C9.56232 0.424895 8.50985 0 7.39858 0C5.04428 0 3.12891 1.91538 3.12891 4.26967C3.12891 5.42382 3.57978 6.75546 4.33495 7.83177C5.1942 9.05647 6.28226 9.73094 7.39858 9.73094Z" fill="#003B4D"/>
<path d="M3.43364 17.1647C2.47356 16.7508 1.58807 16.1914 0.799056 15.5007C0.830028 14.2894 1.19 13.1174 1.84483 12.1014C2.46347 11.1415 3.3156 10.3609 4.32057 9.8308C5.24287 10.669 6.30129 11.1102 7.39721 11.1102C8.05208 11.1102 8.69548 10.9528 9.3095 10.6422C9.50585 10.5429 9.58453 10.3032 9.48524 10.1068C9.3859 9.91049 9.14625 9.83181 8.94984 9.9311C8.44834 10.1847 7.92596 10.3133 7.39715 10.3133C6.43283 10.3133 5.49107 9.88233 4.6738 9.06702C4.55448 8.94802 4.37311 8.917 4.22112 8.98935C2.97655 9.58186 1.92319 10.5087 1.17497 11.6698C0.406302 12.8626 0 14.2464 0 15.6716V15.6774C0 15.7899 0.047494 15.8971 0.130741 15.9726C1.01788 16.7771 2.02301 17.4245 3.11818 17.8965C3.16956 17.9187 3.22305 17.9292 3.2757 17.9292C3.42992 17.9292 3.57681 17.8391 3.64179 17.6883C3.72891 17.4862 3.63573 17.2518 3.43364 17.1647Z" fill="#003B4D"/>
<path d="M4.56852 17.593C4.42545 17.4942 4.23133 17.4995 4.09416 17.6069C3.95545 17.7154 3.90599 17.9098 3.97288 18.0721C4.0336 18.2194 4.18192 18.318 4.34103 18.318C4.51826 18.318 4.67673 18.1963 4.72449 18.0261C4.76954 17.8655 4.70568 17.6879 4.56852 17.593Z" fill="#003B4D"/>
</svg>
