<svg viewBox="0 0 26 19" fill="none" xmlns="http://www.w3.org/2000/svg">
<path d="M22.0751 2.17831C19.6357 0.773626 16.4128 0 13 0C9.58718 0 6.36427 0.773626 3.92492 2.17831C1.39389 3.63575 0 5.59773 0 7.70277V10.7642C0 12.8669 1.39475 14.819 3.92729 16.2609C6.35982 17.6458 9.58192 18.4086 13 18.4086C16.4181 18.4086 19.6402 17.6458 22.0727 16.2609C24.6053 14.8189 26 12.8668 26 10.7642V7.70277C25.9999 5.59773 24.6061 3.63575 22.0751 2.17831ZM4.48743 3.15516C6.75839 1.84748 9.7815 1.12727 12.9999 1.12727C16.2184 1.12727 19.2416 1.84743 21.5125 3.15516C23.6793 4.40294 24.8726 6.01793 24.8726 7.70277C24.8726 9.37799 23.681 10.9714 21.5172 12.1893C19.2577 13.4611 16.2329 14.1616 12.9999 14.1616C9.7669 14.1616 6.74217 13.4612 4.48265 12.1893C2.31889 10.9714 1.12727 9.37804 1.12727 7.70277C1.12727 6.01799 2.32056 4.40294 4.48743 3.15516ZM12.4364 15.2816V17.2738C11.0995 17.2393 9.80361 17.082 8.58912 16.8118V14.8512C9.81188 15.1032 11.106 15.2494 12.4364 15.2816ZM13.5636 15.2816C14.894 15.2494 16.1881 15.1031 17.4109 14.8512V16.8118C16.1964 17.082 14.9005 17.2393 13.5636 17.2738V15.2816ZM1.12904 10.8437C1.49658 11.3245 1.95108 11.7814 2.48728 12.2081V13.7697C1.62133 12.87 1.15207 11.872 1.12904 10.8437ZM3.6145 14.7284V12.9872C3.71777 13.0495 3.82234 13.1112 3.9297 13.1716C4.97505 13.76 6.1684 14.2341 7.4618 14.5836V16.5215C6.37565 16.202 5.37201 15.7863 4.48501 15.2813C4.17442 15.1044 3.8845 14.9197 3.6145 14.7284ZM21.5149 15.2813C20.628 15.7863 19.6243 16.202 18.5381 16.5214V14.5836C19.8316 14.2341 21.0249 13.76 22.0702 13.1716C22.1776 13.1111 22.2822 13.0494 22.3855 12.9872V14.7283C22.1155 14.9197 21.8256 15.1044 21.5149 15.2813ZM23.5127 13.7697V12.2081C24.0489 11.7814 24.5034 11.3246 24.871 10.8438C24.8479 11.872 24.3786 12.87 23.5127 13.7697Z" fill="black"/>
<path d="M14.257 12.7333C19.0326 12.7333 22.7735 10.5131 22.7735 7.67887C22.7735 7.36758 22.5212 7.11523 22.2099 7.11523C21.8986 7.11523 21.6463 7.36758 21.6463 7.67887C21.6463 8.67354 20.921 9.62957 19.6041 10.3709C18.1891 11.1674 16.2901 11.606 14.257 11.606C13.9457 11.606 13.6934 11.8583 13.6934 12.1696C13.6934 12.4809 13.9457 12.7333 14.257 12.7333Z" fill="black"/>
<path d="M4.17887 8.24176C4.49015 8.24176 4.7425 7.98941 4.7425 7.67812C4.7425 5.29546 8.53242 3.28254 13.0185 3.28254C13.3297 3.28254 13.5821 3.03019 13.5821 2.71891C13.5821 2.40762 13.3297 2.15527 13.0185 2.15527C10.5665 2.15527 8.24851 2.6998 6.49148 3.68862C4.6367 4.73242 3.61523 6.14928 3.61523 7.67812C3.61523 7.98941 3.86758 8.24176 4.17887 8.24176Z" fill="black"/>
</svg>
