<svg viewBox="0 0 26 17" fill="none" xmlns="http://www.w3.org/2000/svg">
<ellipse cx="19.2995" cy="4.99918" rx="6.05539" ry="4.29752" fill="white"/>
<path d="M23.7172 1.60585C22.5215 0.917302 20.9417 0.538086 19.2688 0.538086C17.5959 0.538086 16.0161 0.917302 14.8204 1.60585C13.5797 2.32026 12.8965 3.28198 12.8965 4.31383V5.81449C12.8965 6.84517 13.5802 7.80205 14.8216 8.50883C16.0139 9.18772 17.5933 9.56163 19.2688 9.56163C20.9443 9.56163 22.5237 9.18772 23.7161 8.50883C24.9575 7.80203 25.6412 6.84515 25.6412 5.81449V4.31383C25.6411 3.28198 24.9579 2.32026 23.7172 1.60585ZM15.0961 2.08468C16.2093 1.44368 17.6912 1.09065 19.2688 1.09065C20.8464 1.09065 22.3283 1.44366 23.4415 2.08468C24.5036 2.69632 25.0886 3.48796 25.0886 4.31383C25.0886 5.13499 24.5044 5.91603 23.4438 6.51303C22.3362 7.13645 20.8535 7.4798 19.2688 7.4798C17.684 7.4798 16.2014 7.13648 15.0938 6.51303C14.0332 5.91603 13.449 5.13502 13.449 4.31383C13.449 3.48798 14.034 2.69632 15.0961 2.08468ZM18.9925 8.02884V9.00538C18.3372 8.98846 17.702 8.91136 17.1067 8.77891V7.81787C17.7061 7.94135 18.3404 8.01303 18.9925 8.02884ZM19.5451 8.02884C20.1972 8.01303 20.8316 7.94133 21.431 7.81787V8.77891C20.8356 8.91136 20.2004 8.98846 19.5451 9.00538V8.02884ZM13.4499 5.85345C13.6301 6.08913 13.8529 6.31308 14.1157 6.52224V7.2877C13.6912 6.8467 13.4612 6.3575 13.4499 5.85345ZM14.6682 7.75764V6.90417C14.7189 6.93469 14.7701 6.96492 14.8227 6.99455C15.3352 7.28296 15.9201 7.51538 16.5541 7.6867V8.63658C16.0217 8.47997 15.5297 8.27621 15.0949 8.02868C14.9427 7.94198 14.8006 7.85142 14.6682 7.75764ZM23.4427 8.02866C23.0079 8.27621 22.5159 8.47997 21.9835 8.63656V7.68667C22.6175 7.51538 23.2025 7.28296 23.7149 6.99452C23.7675 6.96489 23.8188 6.93466 23.8694 6.90414V7.75761C23.7371 7.85142 23.5949 7.94198 23.4427 8.02866ZM24.422 7.28772V6.52227C24.6848 6.31311 24.9076 6.08916 25.0877 5.85348C25.0764 6.3575 24.8464 6.8467 24.422 7.28772Z" fill="black"/>
<path d="M19.8857 6.77972C22.2266 6.77972 24.0603 5.69144 24.0603 4.30216C24.0603 4.14957 23.9366 4.02588 23.784 4.02588C23.6314 4.02588 23.5077 4.14957 23.5077 4.30216C23.5077 4.78973 23.1522 5.25836 22.5067 5.62173C21.8131 6.01216 20.8822 6.22716 19.8857 6.22716C19.7331 6.22716 19.6094 6.35085 19.6094 6.50344C19.6094 6.65603 19.7331 6.77972 19.8857 6.77972Z" fill="black"/>
<path d="M14.9443 4.57869C15.0968 4.57869 15.2205 4.45499 15.2205 4.30241C15.2205 3.13447 17.0783 2.14778 19.2772 2.14778C19.4298 2.14778 19.5535 2.02408 19.5535 1.8715C19.5535 1.71891 19.4298 1.59521 19.2772 1.59521C18.0753 1.59521 16.9391 1.86213 16.0778 2.34683C15.1687 2.85848 14.668 3.553 14.668 4.30241C14.668 4.45499 14.7917 4.57869 14.9443 4.57869Z" fill="black"/>
<ellipse cx="8.05138" cy="6.26113" rx="6.93224" ry="4.91982" fill="white"/>
<path d="M13.1103 2.37619C11.7415 1.58794 9.93288 1.15381 8.01774 1.15381C6.1026 1.15381 4.29403 1.58794 2.92517 2.37619C1.50485 3.19405 0.722656 4.29503 0.722656 5.4763V7.19425C0.722656 8.37419 1.50533 9.46963 2.92649 10.2788C4.29153 11.056 6.09965 11.484 8.01774 11.484C9.93584 11.484 11.744 11.056 13.109 10.2788C14.5302 9.4696 15.3128 8.37416 15.3128 7.19425V5.4763C15.3128 4.29503 14.5306 3.19405 13.1103 2.37619ZM3.24082 2.92436C4.5152 2.19054 6.21165 1.78639 8.01771 1.78639C9.82378 1.78639 11.5203 2.19051 12.7946 2.92436C14.0106 3.62456 14.6802 4.53083 14.6802 5.4763C14.6802 6.41636 14.0115 7.3105 12.7973 7.99395C11.5293 8.70765 9.83191 9.10072 8.01768 9.10072C6.20345 9.10072 4.5061 8.70768 3.23814 7.99395C2.02393 7.3105 1.35523 6.41639 1.35523 5.4763C1.35523 4.53086 2.02486 3.62456 3.24082 2.92436ZM7.70145 9.72926V10.8472C6.95125 10.8278 6.22406 10.7396 5.54253 10.5879V9.48774C6.22869 9.6291 6.95492 9.71116 7.70145 9.72926ZM8.33403 9.72926C9.08056 9.71116 9.80679 9.62907 10.493 9.48774V10.5879C9.81143 10.7396 9.08424 10.8278 8.33403 10.8472V9.72926ZM1.35623 7.23886C1.56248 7.50867 1.81753 7.76505 2.11842 8.00449V8.88079C1.63248 8.37594 1.36915 7.8159 1.35623 7.23886ZM2.75097 9.41879V8.44172C2.80892 8.47667 2.8676 8.51128 2.92785 8.5452C3.51446 8.87537 4.18412 9.14144 4.90992 9.33757V10.425C4.30042 10.2457 3.73722 10.0124 3.23947 9.72908C3.06518 9.62982 2.90249 9.52614 2.75097 9.41879ZM12.796 9.72905C12.2983 10.0124 11.735 10.2457 11.1255 10.425V9.33754C11.8513 9.14145 12.521 8.87537 13.1076 8.54517C13.1679 8.51125 13.2265 8.47664 13.2845 8.44169V9.41875C13.133 9.52614 12.9703 9.62982 12.796 9.72905ZM13.9171 8.88082V8.00452C14.2179 7.76508 14.473 7.5087 14.6793 7.2389C14.6663 7.8159 14.403 8.37594 13.9171 8.88082Z" fill="black"/>
<path d="M8.72254 8.30007C11.4024 8.30007 13.5017 7.0542 13.5017 5.46375C13.5017 5.28907 13.3601 5.14746 13.1854 5.14746C13.0107 5.14746 12.8691 5.28907 12.8691 5.46375C12.8691 6.02192 12.4621 6.55841 11.7231 6.9744C10.9291 7.42136 9.86344 7.6675 8.72254 7.6675C8.54786 7.6675 8.40625 7.8091 8.40625 7.98379C8.40625 8.15847 8.54786 8.30007 8.72254 8.30007Z" fill="black"/>
<path d="M3.06824 5.77877C3.24292 5.77877 3.38453 5.63717 3.38453 5.46249C3.38453 4.12543 5.51128 2.99586 8.02867 2.99586C8.20335 2.99586 8.34496 2.85425 8.34496 2.67957C8.34496 2.50489 8.20335 2.36328 8.02867 2.36328C6.65272 2.36328 5.35196 2.66885 4.36599 3.22374C3.32516 3.80947 2.75195 4.60456 2.75195 5.46249C2.75195 5.63717 2.89356 5.77877 3.06824 5.77877Z" fill="black"/>
<ellipse cx="15.4967" cy="10.6459" rx="7.91471" ry="5.61708" fill="white"/>
<path d="M21.2722 6.21105C19.7093 5.31109 17.6445 4.81543 15.4579 4.81543C13.2713 4.81543 11.2064 5.31109 9.64357 6.21105C8.02196 7.14482 7.12891 8.40185 7.12891 9.75052V11.712C7.12891 13.0591 8.02251 14.3098 9.64508 15.2336C11.2036 16.121 13.268 16.6097 15.4579 16.6097C17.6478 16.6097 19.7122 16.121 21.2707 15.2336C22.8933 14.3098 23.7869 13.0591 23.7869 11.712V9.75052C23.7868 8.40185 22.8938 7.14482 21.2722 6.21105ZM10.004 6.83691C11.4589 5.99909 13.3958 5.53766 15.4579 5.53766C17.5199 5.53766 19.4568 5.99906 20.9117 6.83691C22.3 7.63635 23.0646 8.67106 23.0646 9.75052C23.0646 10.8238 22.3011 11.8447 20.9148 12.625C19.4672 13.4398 17.5292 13.8886 15.4578 13.8886C13.3865 13.8886 11.4486 13.4399 10.0009 12.625C8.6146 11.8447 7.85113 10.8239 7.85113 9.75052C7.85113 8.6711 8.61567 7.63635 10.004 6.83691ZM15.0968 14.6062V15.8826C14.2402 15.8605 13.41 15.7597 12.6319 15.5866V14.3305C13.4153 14.4919 14.2444 14.5856 15.0968 14.6062ZM15.819 14.6062C16.6713 14.5856 17.5005 14.4918 18.2839 14.3305V15.5866C17.5058 15.7597 16.6755 15.8605 15.819 15.8826V14.6062ZM7.85227 11.7629C8.08775 12.0709 8.37895 12.3636 8.72249 12.637V13.6375C8.16768 13.0611 7.86702 12.4217 7.85227 11.7629ZM9.44468 14.2518V13.1362C9.51085 13.1761 9.57785 13.2156 9.64663 13.2544C10.3164 13.6313 11.0809 13.9351 11.9096 14.159V15.4006C11.2137 15.1959 10.5707 14.9296 10.0024 14.606C9.80342 14.4927 9.61767 14.3743 9.44468 14.2518ZM20.9133 14.606C20.3451 14.9296 19.702 15.1959 19.0061 15.4006V14.159C19.8348 13.9351 20.5994 13.6313 21.2691 13.2543C21.3379 13.2156 21.4049 13.1761 21.4711 13.1362V14.2517C21.2981 14.3743 21.1124 14.4927 20.9133 14.606ZM22.1933 13.6376V12.6371C22.5368 12.3637 22.828 12.071 23.0635 11.7629C23.0487 12.4217 22.7481 13.0611 22.1933 13.6376Z" fill="black"/>
<path d="M16.2615 12.973C19.3212 12.973 21.718 11.5505 21.718 9.73465C21.718 9.53521 21.5563 9.37354 21.3569 9.37354C21.1574 9.37354 20.9957 9.53521 20.9957 9.73465C20.9957 10.3719 20.5311 10.9844 19.6873 11.4594C18.7808 11.9697 17.5641 12.2507 16.2615 12.2507C16.0621 12.2507 15.9004 12.4124 15.9004 12.6118C15.9004 12.8113 16.0621 12.973 16.2615 12.973Z" fill="black"/>
<path d="M9.80643 10.0958C10.0059 10.0958 10.1675 9.93417 10.1675 9.73473C10.1675 8.20818 12.5957 6.91852 15.4699 6.91852C15.6693 6.91852 15.831 6.75684 15.831 6.5574C15.831 6.35797 15.6693 6.19629 15.4699 6.19629C13.8989 6.19629 12.4138 6.54516 11.2881 7.17869C10.0998 7.84744 9.44531 8.75521 9.44531 9.73473C9.44531 9.93417 9.60699 10.0958 9.80643 10.0958Z" fill="black"/>
</svg>
