<svg viewBox="0 0 31 18" fill="none" xmlns="http://www.w3.org/2000/svg">
<path d="M29.9967 0H23.2661C22.998 0 22.7807 0.217302 22.7807 0.485402V1.00314C22.7807 1.30648 22.5339 1.55326 22.2305 1.55326C21.9272 1.55326 21.6804 1.30648 21.6804 1.00314V0.485402C21.6804 0.217362 21.4631 0 21.195 0H1.00314C0.449983 0 0 0.449983 0 1.00314V16.5354C0 17.0886 0.449983 17.5385 1.00314 17.5385H21.1951C21.4632 17.5385 21.6805 17.3212 21.6805 17.0531V16.5354C21.6805 16.2321 21.9273 15.9853 22.2307 15.9853C22.534 15.9853 22.7808 16.2321 22.7808 16.5354V17.0531C22.7808 17.3212 22.9981 17.5385 23.2662 17.5385H29.9969C30.55 17.5385 31 17.0886 31 16.5354V1.00314C30.9999 0.449983 30.5499 0 29.9967 0ZM30.0291 16.5354C30.0291 16.5533 30.0147 16.5677 29.9968 16.5677H23.7515V16.5354C23.7515 15.8665 23.3172 15.2975 22.716 15.0944V14.4644C22.716 14.1964 22.4987 13.979 22.2306 13.979C21.9626 13.979 21.7452 14.1963 21.7452 14.4644V15.0944C21.144 15.2975 20.7097 15.8665 20.7097 16.5354V16.5677H1.00314C0.985275 16.5677 0.970805 16.5533 0.970805 16.5354V1.00314C0.970805 0.985275 0.985275 0.970805 1.00314 0.970805H20.7097V1.00314C20.7097 1.67206 21.144 2.24107 21.7452 2.44415V3.07413C21.7452 3.34217 21.9625 3.55954 22.2306 3.55954C22.4986 3.55954 22.716 3.34224 22.716 3.07413V2.44415C23.3172 2.24107 23.7515 1.67206 23.7515 1.00314V0.970805H29.9967C30.0146 0.970805 30.0291 0.985275 30.0291 1.00314V16.5354H30.0291Z" fill="black"/>
<path d="M22.2315 4.66016C21.9635 4.66016 21.7461 4.87746 21.7461 5.14556V6.18103C21.7461 6.44907 21.9634 6.66643 22.2315 6.66643C22.4995 6.66643 22.7169 6.44913 22.7169 6.18103V5.14556C22.7169 4.87752 22.4995 4.66016 22.2315 4.66016Z" fill="black"/>
<path d="M22.2315 7.7666C21.9635 7.7666 21.7461 7.9839 21.7461 8.252V9.28747C21.7461 9.55551 21.9634 9.77287 22.2315 9.77287C22.4995 9.77287 22.7169 9.55557 22.7169 9.28747V8.252C22.7169 7.9839 22.4995 7.7666 22.2315 7.7666Z" fill="black"/>
<path d="M22.2315 10.873C21.9635 10.873 21.7461 11.0903 21.7461 11.3584V12.3939C21.7461 12.662 21.9634 12.8793 22.2315 12.8793C22.4995 12.8793 22.7169 12.662 22.7169 12.3939V11.3584C22.7169 11.0903 22.4995 10.873 22.2315 10.873Z" fill="black"/>
<path d="M15.8432 3.7662C15.6537 3.57663 15.3463 3.57663 15.1568 3.7662L5.83749 13.0856C5.64792 13.2752 5.64792 13.5825 5.83749 13.772C5.93225 13.8668 6.05649 13.9142 6.18067 13.9142C6.30485 13.9142 6.42909 13.8668 6.52385 13.772L15.8432 4.45262C16.0328 4.26311 16.0328 3.95571 15.8432 3.7662Z" fill="black"/>
<path d="M7.73407 3.10645C6.32449 3.10645 5.17773 4.25326 5.17773 5.66278C5.17773 7.07231 6.32455 8.21912 7.73407 8.21912C9.1436 8.21912 10.2904 7.07231 10.2904 5.66278C10.2904 4.25326 9.1436 3.10645 7.73407 3.10645ZM7.73407 7.24838C6.85978 7.24838 6.14848 6.53708 6.14848 5.66278C6.14848 4.78849 6.85978 4.07719 7.73407 4.07719C8.60837 4.07719 9.31967 4.78849 9.31967 5.66278C9.31967 6.53708 8.60831 7.24838 7.73407 7.24838Z" fill="black"/>
<path d="M13.947 9.31934C12.5374 9.31934 11.3906 10.4662 11.3906 11.8757C11.3906 13.2852 12.5374 14.432 13.947 14.432C15.3565 14.432 16.5033 13.2852 16.5033 11.8757C16.5033 10.4662 15.3565 9.31934 13.947 9.31934ZM13.947 13.4613C13.0727 13.4613 12.3614 12.75 12.3614 11.8757C12.3614 11.0014 13.0727 10.2901 13.947 10.2901C14.8213 10.2901 15.5326 11.0014 15.5326 11.8757C15.5326 12.75 14.8212 13.4613 13.947 13.4613Z" fill="black"/>
</svg>
