<svg width="13" height="13" viewBox="0 0 13 13" fill="none" xmlns="http://www.w3.org/2000/svg">
<mask id="path-1-inside-1" fill="white">
<path d="M12.913 0.684456C12.7384 0.262238 12.3458 0 11.8887 0H1.11132C0.65419 0 0.261626 0.262238 0.086966 0.684456C-0.0875949 1.10608 0.00464467 1.56847 0.327582 1.89101L5.29414 6.85299V12.428C5.29414 12.6548 5.42248 12.854 5.62908 12.9478C5.70614 12.9828 5.78717 13 5.86721 13C6.002 13 6.13421 12.9515 6.24143 12.8578L7.33739 11.8996C7.57156 11.6949 7.70586 11.3991 7.70586 11.0882V6.85299L12.6725 1.89101C12.9954 1.56847 13.0876 1.10608 12.913 0.684456ZM12.4033 1.62163L7.43668 6.58361H6.24609C6.14106 6.58361 6.05576 6.6692 6.05576 6.77404C6.05576 6.87897 6.14106 6.96447 6.24609 6.96447H7.3251V11.0882C7.3251 11.2893 7.23821 11.4805 7.08676 11.6129L5.9908 12.571C5.905 12.646 5.81276 12.613 5.78648 12.6011C5.7603 12.5892 5.675 12.5416 5.675 12.4281V6.69509L0.596664 1.62153C0.343452 1.36861 0.349105 1.04687 0.438766 0.830055C0.528625 0.612946 0.75248 0.380859 1.11132 0.380859H11.8887C12.2475 0.380859 12.4714 0.612946 12.5612 0.830055C12.6509 1.04687 12.6565 1.36861 12.4033 1.62163Z"/>
</mask>
<path d="M12.913 0.684456C12.7384 0.262238 12.3458 0 11.8887 0H1.11132C0.65419 0 0.261626 0.262238 0.086966 0.684456C-0.0875949 1.10608 0.00464467 1.56847 0.327582 1.89101L5.29414 6.85299V12.428C5.29414 12.6548 5.42248 12.854 5.62908 12.9478C5.70614 12.9828 5.78717 13 5.86721 13C6.002 13 6.13421 12.9515 6.24143 12.8578L7.33739 11.8996C7.57156 11.6949 7.70586 11.3991 7.70586 11.0882V6.85299L12.6725 1.89101C12.9954 1.56847 13.0876 1.10608 12.913 0.684456ZM12.4033 1.62163L7.43668 6.58361H6.24609C6.14106 6.58361 6.05576 6.6692 6.05576 6.77404C6.05576 6.87897 6.14106 6.96447 6.24609 6.96447H7.3251V11.0882C7.3251 11.2893 7.23821 11.4805 7.08676 11.6129L5.9908 12.571C5.905 12.646 5.81276 12.613 5.78648 12.6011C5.7603 12.5892 5.675 12.5416 5.675 12.4281V6.69509L0.596664 1.62153C0.343452 1.36861 0.349105 1.04687 0.438766 0.830055C0.528625 0.612946 0.75248 0.380859 1.11132 0.380859H11.8887C12.2475 0.380859 12.4714 0.612946 12.5612 0.830055C12.6509 1.04687 12.6565 1.36861 12.4033 1.62163Z" fill="white"/>
<path d="M12.913 0.684456L11.989 1.06671L11.9891 1.06699L12.913 0.684456ZM0.086966 0.684456L1.01091 1.06699L1.01102 1.06671L0.086966 0.684456ZM0.327582 1.89101L1.03436 1.18357L1.03425 1.18346L0.327582 1.89101ZM5.29414 6.85299H6.29414V6.43851L6.00092 6.14556L5.29414 6.85299ZM5.62908 12.9478L6.0427 12.0374L6.04258 12.0373L5.62908 12.9478ZM6.24143 12.8578L6.89959 13.6107L6.89963 13.6106L6.24143 12.8578ZM7.33739 11.8996L6.67923 11.1467L6.67919 11.1467L7.33739 11.8996ZM7.70586 6.85299L6.99908 6.14555L6.70586 6.4385V6.85299H7.70586ZM12.6725 1.89101L13.3793 2.59845L13.3793 2.59844L12.6725 1.89101ZM12.4033 1.62163L13.1101 2.32907L13.1102 2.32901L12.4033 1.62163ZM7.43668 6.58361V7.58361H7.85061L8.14345 7.29105L7.43668 6.58361ZM7.3251 6.96447H8.3251V5.96447H7.3251V6.96447ZM7.08676 11.6129L7.74493 12.3658L7.74495 12.3658L7.08676 11.6129ZM5.9908 12.571L6.64887 13.324L6.64896 13.3239L5.9908 12.571ZM5.78648 12.6011L5.37268 13.5115L5.37397 13.512L5.78648 12.6011ZM5.675 6.69509H6.675V6.2806L6.38177 5.98765L5.675 6.69509ZM0.596664 1.62153L1.30344 0.91409L1.30335 0.914006L0.596664 1.62153ZM0.438766 0.830055L-0.48522 0.447628L-0.485333 0.447902L0.438766 0.830055ZM12.5612 0.830055L13.4853 0.447902L13.4852 0.447628L12.5612 0.830055ZM13.8371 0.302199C13.5076 -0.494307 12.75 -1 11.8887 -1V1C11.9233 1 11.9417 1.00902 11.9512 1.01538C11.9607 1.02174 11.9759 1.03514 11.989 1.06671L13.8371 0.302199ZM11.8887 -1H1.11132V1H11.8887V-1ZM1.11132 -1C0.249979 -1 -0.507597 -0.494307 -0.83709 0.302199L1.01102 1.06671C1.02408 1.03514 1.03925 1.02174 1.04876 1.01538C1.05829 1.00902 1.07671 1 1.11132 1V-1ZM-0.836976 0.301924C-1.16639 1.09758 -0.988181 1.99021 -0.379089 2.59855L1.03425 1.18346C1.0101 1.15934 1.00359 1.14028 1.0014 1.1293C0.99921 1.11833 0.997925 1.09835 1.01091 1.06699L-0.836976 0.301924ZM-0.379198 2.59844L4.58736 7.56042L6.00092 6.14556L1.03436 1.18357L-0.379198 2.59844ZM4.29414 6.85299V12.428H6.29414V6.85299H4.29414ZM4.29414 12.428C4.29414 13.0474 4.65205 13.6024 5.21557 13.8583L6.04258 12.0373C6.19291 12.1056 6.29414 12.2623 6.29414 12.428H4.29414ZM5.21545 13.8583C5.42158 13.9519 5.64357 14 5.86721 14V12C5.93078 12 5.9907 12.0138 6.0427 12.0374L5.21545 13.8583ZM5.86721 14C6.24549 14 6.6112 13.8628 6.89959 13.6107L5.58327 12.1049C5.65723 12.0402 5.75851 12 5.86721 12V14ZM6.89963 13.6106L7.9956 12.6524L6.67919 11.1467L5.58322 12.1049L6.89963 13.6106ZM7.99556 12.6524C8.4469 12.2579 8.70586 11.6877 8.70586 11.0882H6.70586C6.70586 11.1105 6.69623 11.1318 6.67923 11.1467L7.99556 12.6524ZM8.70586 11.0882V6.85299H6.70586V11.0882H8.70586ZM8.41263 7.56043L13.3793 2.59845L11.9657 1.18357L6.99908 6.14555L8.41263 7.56043ZM13.3793 2.59844C13.9882 1.99012 14.1664 1.09755 13.837 0.301924L11.9891 1.06699C12.0021 1.09834 12.0008 1.11835 11.9986 1.12935C11.9964 1.14037 11.9899 1.15945 11.9657 1.18357L13.3793 2.59844ZM11.6966 0.914189L6.7299 5.87617L8.14345 7.29105L13.1101 2.32907L11.6966 0.914189ZM7.43668 5.58361H6.24609V7.58361H7.43668V5.58361ZM6.24609 5.58361C5.58742 5.58361 5.05576 6.11828 5.05576 6.77404H7.05576C7.05576 7.22013 6.6947 7.58361 6.24609 7.58361V5.58361ZM5.05576 6.77404C5.05576 7.43024 5.58775 7.96447 6.24609 7.96447V5.96447C6.69436 5.96447 7.05576 6.32771 7.05576 6.77404H5.05576ZM6.24609 7.96447H7.3251V5.96447H6.24609V7.96447ZM6.3251 6.96447V11.0882H8.3251V6.96447H6.3251ZM6.3251 11.0882C6.3251 11.0006 6.363 10.9174 6.42857 10.8601L7.74495 12.3658C8.11342 12.0436 8.3251 11.5781 8.3251 11.0882H6.3251ZM6.42859 10.8601L5.33263 11.8182L6.64896 13.3239L7.74493 12.3658L6.42859 10.8601ZM5.33272 11.8181C5.4986 11.6731 5.70171 11.6169 5.87635 11.6187C6.02696 11.6202 6.13926 11.6631 6.19899 11.6901L5.37397 13.512C5.5046 13.5712 6.10456 13.7997 6.64887 13.324L5.33272 11.8181ZM6.20028 11.6907C6.2607 11.7182 6.36692 11.7746 6.46714 11.887C6.58337 12.0173 6.675 12.2073 6.675 12.4281H4.675C4.675 13.1506 5.24163 13.4519 5.37268 13.5115L6.20028 11.6907ZM6.675 12.4281V6.69509H4.675V12.4281H6.675ZM6.38177 5.98765L1.30344 0.91409L-0.11011 2.32897L4.96823 7.40253L6.38177 5.98765ZM1.30335 0.914006C1.33887 0.949478 1.37078 1.00996 1.37991 1.07675C1.38726 1.13048 1.37862 1.1741 1.36286 1.21221L-0.485333 0.447902C-0.690489 0.943997 -0.715431 1.72436 -0.110026 2.32905L1.30335 0.914006ZM1.36275 1.21248C1.34695 1.25065 1.32225 1.28753 1.27926 1.3202C1.22578 1.36085 1.16085 1.38086 1.11132 1.38086V-0.61914C0.255063 -0.61914 -0.279533 -0.0493328 -0.48522 0.447628L1.36275 1.21248ZM1.11132 1.38086H11.8887V-0.61914H1.11132V1.38086ZM11.8887 1.38086C11.8391 1.38086 11.7742 1.36085 11.7207 1.3202C11.6777 1.28753 11.653 1.25065 11.6372 1.21248L13.4852 0.447628C13.2795 -0.0493334 12.7449 -0.61914 11.8887 -0.61914V1.38086ZM11.6371 1.21221C11.6214 1.17409 11.6127 1.13047 11.6201 1.07678C11.6292 1.01003 11.6611 0.949629 11.6965 0.914243L13.1102 2.32901C13.7154 1.7243 13.6905 0.944077 13.4853 0.447902L11.6371 1.21221Z" fill="#663399" mask="url(#path-1-inside-1)"/>
</svg>
