<svg width="31" height="31" viewBox="0 0 31 31" fill="none" xmlns="http://www.w3.org/2000/svg">
<rect x="0.989014" y="0.0487671" width="30" height="30" rx="15" fill="white"/>
<path d="M15.9878 21.049C15.7113 21.049 15.4878 21.2725 15.4878 21.549V22.549C15.4878 22.8255 15.7113 23.049 15.9878 23.049C16.2643 23.049 16.4878 22.8255 16.4878 22.549V21.549C16.4878 21.2725 16.2643 21.049 15.9878 21.049Z" fill="#AC74BA"/>
<path d="M16.0456 7.04896C16.0266 7.04896 16.0076 7.04846 15.9881 7.04846C14.93 7.04846 13.935 7.45597 13.1805 8.20048C12.4125 8.95798 11.989 9.9695 11.989 11.0485C11.989 11.325 12.2125 11.5485 12.489 11.5485C12.7655 11.5485 12.989 11.325 12.989 11.0485C12.989 10.2395 13.3065 9.48049 13.8825 8.91248C14.459 8.34398 15.2266 8.02997 16.0321 8.04897C17.6126 8.07097 18.9666 9.42499 18.9886 11.0055C19.0031 12.0475 18.4891 13.0065 17.6131 13.5715C16.2831 14.4295 15.4891 15.9456 15.4891 17.6276V19.0486C15.4891 19.3251 15.7126 19.5486 15.9891 19.5486C16.2656 19.5486 16.4891 19.3251 16.4891 19.0486V17.6276C16.4891 16.3066 17.1271 15.0751 18.1551 14.4115C19.3226 13.6585 20.0081 12.38 19.9886 10.9915C19.9586 8.84798 18.1896 7.07896 16.0456 7.04896Z" fill="#AC74BA"/>
</svg>
