<svg width="16" height="16" viewBox="0 0 16 16" fill="none" xmlns="http://www.w3.org/2000/svg">
<path d="M14.9795 1.95818C14.9519 1.82028 14.814 1.70996 14.6761 1.70996L12.952 1.8667C12.961 1.79725 12.9662 1.72661 12.9662 1.65481C12.9662 0.744676 12.2215 0 11.3113 0C10.4012 0 9.65653 0.744644 9.65653 1.65481C9.65653 1.82012 9.68137 1.97983 9.72704 2.13074L5.79746 2.47244L1.32738 2.0685C1.2722 2.04091 1.18947 2.0685 1.13433 2.12368C1.0516 2.17885 1.02401 2.234 1.02401 2.31673L0.00355146 13.8727C-0.0240361 14.0382 0.11387 14.1761 0.251777 14.1761L3.91314 14.4855L3.91992 14.5622C3.9475 14.6449 3.97509 14.7001 4.03024 14.7553C4.05782 14.7828 4.14055 14.8104 4.19573 14.8104L5.96033 14.6546L11.8078 15.169C11.9733 15.169 12.0836 15.0587 12.0836 14.9208L12.1478 14.1082L15.7518 13.79C15.8345 13.7624 15.8897 13.7348 15.9448 13.6797C15.9724 13.6245 16 13.5693 16 13.4866L14.9795 1.95818ZM11.3113 0.551594C11.9181 0.551594 12.4145 1.04804 12.4145 1.65478C12.4145 1.78144 12.3926 1.90316 12.3529 2.01667C12.3438 2.03235 12.3365 2.04954 12.3318 2.06847C12.1774 2.45451 11.8068 2.72029 11.3994 2.7541C11.3955 2.75441 11.3916 2.75472 11.3878 2.75497C11.3624 2.75681 11.3369 2.75794 11.3113 2.75794C11.29 2.75794 11.2688 2.75713 11.2477 2.75594C11.2375 2.75535 11.2274 2.75447 11.2173 2.7536C11.208 2.75285 11.1988 2.75197 11.1896 2.751C10.9575 2.72523 10.7466 2.62666 10.5802 2.47882C10.5688 2.4606 10.5553 2.44314 10.5391 2.42695C10.5229 2.41077 10.5054 2.39724 10.4872 2.38581C10.4449 2.33822 10.4066 2.28705 10.373 2.23268C10.3661 2.21906 10.3588 2.20669 10.3511 2.1955C10.2603 2.03542 10.2081 1.85089 10.2081 1.65469C10.2081 1.04804 10.7046 0.551594 11.3113 0.551594ZM0.582733 13.6245L1.54802 2.64768L2.98216 2.78559L2.95457 2.81318C2.92698 2.86835 2.8994 2.9235 2.8994 3.00623L3.86137 13.9L0.582733 13.6245ZM11.5595 14.5898L9.12149 14.3755L11.5866 14.1578L11.5595 14.5898ZM4.44392 14.2037L3.48102 3.25423L5.90566 3.03381C5.94574 3.03381 5.98336 3.02191 6.01676 3.00198L9.92428 2.65571L8.63607 3.94392C8.52575 4.05424 8.52575 4.21973 8.63607 4.33005C8.69125 4.38523 8.74639 4.41278 8.82912 4.41278C8.91185 4.41278 8.96703 4.3852 9.02217 4.33005L10.3518 3.00038C10.623 3.19462 10.9543 3.3096 11.3113 3.3096C11.9544 3.3096 12.5145 2.93752 12.7881 2.39824L14.4554 2.26158L15.4208 13.2384L4.44392 14.2037Z" fill="black"/>
<path d="M12.1936 6.37102L13.0486 6.28829C13.1865 6.2607 13.2968 6.12279 13.2968 5.98492C13.2692 5.84701 13.1313 5.73669 12.9934 5.73669L12.166 5.81943C12.0281 5.84701 11.9178 5.98492 11.9178 6.12279C11.9178 6.2607 12.0557 6.37102 12.1936 6.37102Z" fill="black"/>
<path d="M9.16004 6.64654L11.1182 6.48105C11.2561 6.45346 11.3665 6.31555 11.3665 6.17768C11.3389 6.03977 11.201 5.90187 11.0631 5.92945L9.13249 6.09495C8.99458 6.12254 8.88426 6.26044 8.88426 6.39832C8.91185 6.53622 9.02217 6.64654 9.16004 6.64654Z" fill="black"/>
<path d="M8.11194 6.72934C8.24985 6.70175 8.36017 6.56385 8.36017 6.42597C8.33258 6.28806 8.22226 6.15016 8.0568 6.17775L5.57461 6.39838C5.4367 6.42597 5.32639 6.56388 5.32639 6.70175C5.35397 6.83966 5.46429 6.94998 5.6022 6.94998L8.11194 6.72934Z" fill="black"/>
<path d="M13.1314 7.39124L11.2008 7.55673C11.0629 7.58432 10.9525 7.72223 10.9525 7.8601C10.9801 7.99801 11.0905 8.10833 11.2284 8.10833L13.1865 7.94283C13.3244 7.91525 13.4348 7.80493 13.4348 7.63946C13.4071 7.50156 13.2693 7.36368 13.1314 7.39124Z" fill="black"/>
<path d="M7.39467 8.19103C7.42226 8.32894 7.53258 8.43926 7.67048 8.43926L9.62866 8.27376C9.76657 8.24617 9.90448 8.10827 9.87689 7.97039C9.8493 7.83249 9.7114 7.72217 9.57352 7.72217L7.64293 7.88766C7.50499 7.91522 7.39467 8.05312 7.39467 8.19103Z" fill="black"/>
<path d="M6.5949 8.52219C6.73281 8.4946 6.84313 8.35669 6.84313 8.21882C6.81554 8.08091 6.70522 7.943 6.53976 7.97059L5.71235 8.05332C5.57445 8.08091 5.46413 8.21882 5.46413 8.35669C5.49171 8.4946 5.60203 8.60492 5.73994 8.60492L6.5949 8.52219Z" fill="black"/>
<path d="M13.2697 9.0464L12.7181 9.10157C12.5802 9.12916 12.4699 9.26707 12.4699 9.40494C12.4699 9.54285 12.6078 9.65317 12.7457 9.65317L13.3249 9.59799C13.4628 9.5704 13.5731 9.4325 13.5731 9.29462C13.5455 9.15672 13.4076 9.01881 13.2697 9.0464Z" fill="black"/>
<path d="M11.6428 9.18409L8.88479 9.43232C8.74689 9.45991 8.63657 9.59781 8.63657 9.73569C8.66415 9.87359 8.77447 9.98391 8.91238 9.98391L11.698 9.73569C11.8359 9.7081 11.9738 9.57019 11.9462 9.43232C11.9186 9.29444 11.7807 9.15651 11.6428 9.18409Z" fill="black"/>
<path d="M7.22908 9.59791L5.85008 9.70823C5.71217 9.73582 5.60185 9.87373 5.60185 10.0116C5.62944 10.1495 5.73976 10.2598 5.87767 10.2598L7.28425 10.1495C7.42216 10.1219 7.53248 9.98401 7.53248 9.84614C7.50489 9.70823 7.39457 9.57032 7.22908 9.59791Z" fill="black"/>
<path d="M13.4345 10.7008L10.6765 10.949C10.5386 10.9766 10.4282 11.1145 10.4282 11.2524C10.4558 11.3903 10.5661 11.5006 10.7041 11.5006L13.4896 11.2524C13.6275 11.2248 13.7379 11.0869 13.7379 10.949C13.7103 10.8111 13.5724 10.7008 13.4345 10.7008Z" fill="black"/>
<path d="M9.02271 11.0869L7.91952 11.1697C7.78161 11.1972 7.6713 11.3352 7.6713 11.473C7.69888 11.6109 7.8092 11.7213 7.94711 11.7213L9.07788 11.6385C9.21579 11.6109 9.3537 11.473 9.32611 11.3352C9.29849 11.1972 9.16058 11.0593 9.02271 11.0869Z" fill="black"/>
<path d="M6.81521 11.2525L5.9878 11.3352C5.8499 11.3628 5.73958 11.5007 5.73958 11.6386C5.76717 11.7765 5.87748 11.8868 6.01539 11.8868L6.87039 11.804C7.00829 11.7765 7.11861 11.6386 7.11861 11.5007C7.09102 11.3628 6.9807 11.2249 6.81521 11.2525Z" fill="black"/>
</svg>
