<svg width="22" height="22" viewBox="0 0 22 22" fill="none" xmlns="http://www.w3.org/2000/svg">
<path d="M21.4227 16.9711L16.9698 14.0015C16.4047 13.6277 15.6473 13.7507 15.2295 14.2841L13.9324 15.9519C13.7657 16.1717 13.4627 16.2354 13.2216 16.1014L12.9748 15.9654C12.1569 15.5196 11.1392 14.9646 9.08877 12.9134C7.0383 10.8622 6.48215 9.84372 6.03633 9.0273L5.90104 8.78057C5.76524 8.53947 5.82779 8.23516 6.04767 8.06714L7.71427 6.77045C8.24752 6.35264 8.37069 5.59538 7.99731 5.03013L5.02775 0.577245C4.64508 0.00163512 3.87734 -0.17116 3.28493 0.184956L1.4229 1.30348C0.837839 1.64744 0.408602 2.20449 0.225195 2.8579C-0.445319 5.301 0.0591021 9.51742 6.27026 15.7293C11.2111 20.6698 14.8893 21.9984 17.4175 21.9984C17.9993 22.0009 18.5789 21.9252 19.1406 21.7733C19.7941 21.5901 20.3513 21.1608 20.695 20.5756L21.8147 18.7147C22.1713 18.1221 21.9986 17.3539 21.4227 16.9711ZM21.1829 18.3385L20.0659 20.2005C19.8191 20.6229 19.4183 20.9335 18.9477 21.0672C16.6923 21.6864 12.752 21.1735 6.78899 15.2106C0.826024 9.24762 0.313182 5.30762 0.932399 3.05188C1.06627 2.58067 1.37723 2.17944 1.80015 1.93224L3.66219 0.815171C3.91923 0.660506 4.25245 0.735476 4.4185 0.985259L6.03161 3.40709L7.38552 5.43775C7.54766 5.68294 7.49439 6.01156 7.26308 6.19299L5.5961 7.48968C5.0888 7.87759 4.94393 8.57946 5.25626 9.13651L5.38863 9.37702C5.85718 10.2364 6.43971 11.3054 8.56643 13.4318C10.6932 15.5581 11.7618 16.1407 12.6208 16.6092L12.8616 16.7419C13.4186 17.0542 14.1206 16.9094 14.5085 16.4021L15.8052 14.7351C15.9866 14.5039 16.3151 14.4507 16.5604 14.6126L21.0129 17.5822C21.2628 17.7481 21.3378 18.0815 21.1829 18.3385Z" fill="black"/>
<path d="M12.4662 3.66777C15.9067 3.67159 18.6948 6.45972 18.6986 9.90019C18.6986 10.1027 18.8627 10.2668 19.0652 10.2668C19.2677 10.2668 19.4318 10.1027 19.4318 9.90019C19.4276 6.05493 16.3115 2.93878 12.4662 2.93457C12.2637 2.93457 12.0996 3.09869 12.0996 3.30117C12.0996 3.50365 12.2637 3.66777 12.4662 3.66777Z" fill="black"/>
<path d="M12.4662 5.86747C14.6923 5.87009 16.4963 7.67409 16.499 9.90022C16.499 10.1027 16.6631 10.2668 16.8656 10.2668C17.068 10.2668 17.2322 10.1027 17.2322 9.90022C17.2291 7.26929 15.0971 5.13728 12.4662 5.13428C12.2637 5.13428 12.0996 5.29839 12.0996 5.50088C12.0996 5.70336 12.2637 5.86747 12.4662 5.86747Z" fill="black"/>
<path d="M12.4662 8.06718C13.4781 8.06838 14.298 8.88836 14.2993 9.90026C14.2993 10.1027 14.4634 10.2669 14.6659 10.2669C14.8683 10.2669 15.0325 10.1027 15.0325 9.90026C15.0308 8.48362 13.8829 7.33557 12.4662 7.33398C12.2637 7.33398 12.0996 7.4981 12.0996 7.70058C12.0996 7.90306 12.2637 8.06718 12.4662 8.06718Z" fill="black"/>
</svg>
