<svg width="34" height="24" viewBox="0 0 34 24" fill="none" xmlns="http://www.w3.org/2000/svg">
<path d="M3.00945 3.0855C2.77324 2.84929 2.39432 2.84929 2.15811 3.08058C1.91697 3.31679 1.91697 3.69571 2.15318 3.93193L3.59013 5.37872C3.70332 5.4919 3.85587 5.55587 4.01827 5.55587C4.17574 5.55587 4.32829 5.4919 4.44148 5.37872L8.8163 1.0285C9.05251 0.79229 9.05251 0.413369 8.82122 0.177158C8.58501 -0.0590527 8.20609 -0.0590527 7.96987 0.177158L6.64611 1.49108C5.9424 0.762764 4.96311 0.344474 3.93461 0.344474C1.853 0.344474 0.160156 2.03732 0.160156 4.11893C0.160156 6.20053 1.853 7.89338 3.93461 7.89338C5.61269 7.89338 7.0644 6.81567 7.55158 5.2114C7.65001 4.89153 7.46793 4.5569 7.14806 4.45848C6.82819 4.36498 6.49356 4.54214 6.39514 4.86201C6.07035 5.9348 5.05661 6.68772 3.93461 6.68772C2.51734 6.68772 1.36582 5.53619 1.36582 4.11893C1.36582 2.70166 2.51734 1.55013 3.93461 1.55013C4.63832 1.55013 5.30758 1.8454 5.78985 2.34734L4.02319 4.10416L3.00945 3.0855Z" fill="#003B4D"/>
<path d="M3.93461 8.39502C1.853 8.39502 0.160156 10.0879 0.160156 12.1695C0.160156 14.2511 1.853 15.9439 3.93461 15.9439C6.01621 15.9439 7.70906 14.2511 7.70906 12.1695C7.70906 10.0879 6.01621 8.39502 3.93461 8.39502ZM3.93461 14.7383C2.51734 14.7383 1.36582 13.5867 1.36582 12.1695C1.36582 10.7522 2.51734 9.60068 3.93461 9.60068C5.35187 9.60068 6.5034 10.7522 6.5034 12.1695C6.5034 13.5867 5.35187 14.7383 3.93461 14.7383Z" fill="#003B4D"/>
<path d="M7.70906 20.2256C7.70906 18.144 6.01621 16.4512 3.93461 16.4512C1.853 16.4512 0.160156 18.144 0.160156 20.2256C0.160156 22.3072 1.853 24.0001 3.93461 24.0001C6.01621 24.0001 7.70906 22.3072 7.70906 20.2256ZM3.93461 22.7993C2.51734 22.7993 1.36582 21.6478 1.36582 20.2305C1.36582 18.8133 2.51734 17.6618 3.93461 17.6618C5.35187 17.6618 6.5034 18.8133 6.5034 20.2305C6.5034 21.6478 5.35187 22.7993 3.93461 22.7993Z" fill="#003B4D"/>
<path d="M32.8784 11.5645H11.1489C10.5289 11.5645 10.0273 11.8351 10.0273 12.1697C10.0273 12.5044 10.5289 12.775 11.1489 12.775H32.8784C33.4985 12.775 34 12.5044 34 12.1697C34 11.8351 33.4985 11.5645 32.8784 11.5645Z" fill="#003B4D"/>
<path d="M32.8784 3.51855H11.1489C10.5289 3.51855 10.0273 3.78921 10.0273 4.12385C10.0273 4.45848 10.5289 4.72914 11.1489 4.72914H32.8784C33.4985 4.72914 34 4.45848 34 4.12385C34 3.78921 33.4985 3.51855 32.8784 3.51855Z" fill="#003B4D"/>
<path d="M32.8784 19.6255H11.1489C10.5289 19.6255 10.0273 19.8961 10.0273 20.2308C10.0273 20.5654 10.5289 20.8361 11.1489 20.8361H32.8784C33.4985 20.8361 34 20.5654 34 20.2308C34 19.8912 33.4985 19.6255 32.8784 19.6255Z" fill="#003B4D"/>
</svg>
