<svg width="30" height="30" viewBox="0 0 30 30" fill="none" xmlns="http://www.w3.org/2000/svg">
<rect width="30" height="30" rx="15" fill="white"/>
<path d="M12.228 11.2301C12.228 12.0273 12.5483 12.9476 13.0848 13.692C13.6928 14.5354 14.4607 15 15.2471 15C16.0335 15 16.8014 14.5354 17.4094 13.692C17.946 12.9476 18.2663 12.0273 18.2663 11.2301C18.2663 9.60939 16.9119 8.29083 15.2471 8.29083C13.5824 8.29083 12.228 9.60939 12.228 11.2301ZM15.2471 8.77012C16.6404 8.77012 17.7739 9.87367 17.7739 11.2301C17.7739 11.922 17.4798 12.7598 17.0064 13.4167C16.5007 14.1183 15.8594 14.5207 15.2471 14.5207C14.6348 14.5207 13.9935 14.1183 13.4878 13.4167C13.0144 12.7598 12.7203 11.922 12.7203 11.2301C12.7203 9.87367 13.8538 8.77012 15.2471 8.77012Z" fill="#8646C6"/>
<path d="M19.5149 16.3758C18.972 15.5003 18.2078 14.8014 17.3047 14.3546C17.2088 14.3071 17.0946 14.3275 17.0194 14.4055C16.4141 15.0327 15.7157 15.3642 14.9999 15.3642C14.2839 15.3642 13.5857 15.0327 12.9808 14.4055C12.9056 14.3275 12.7913 14.3071 12.6954 14.3546C11.7923 14.8013 11.028 15.5002 10.4851 16.3757C9.92735 17.275 9.63257 18.3184 9.63257 19.393V19.3975C9.63257 19.4712 9.66251 19.5414 9.715 19.5909C11.1645 20.957 13.0414 21.7093 14.9999 21.7093C16.9584 21.7093 18.8352 20.9569 20.2848 19.5909C20.3373 19.5414 20.3672 19.4712 20.3672 19.3976V19.393C20.3672 18.3184 20.0725 17.275 19.5149 16.3758ZM14.9999 21.1872C13.2039 21.1872 11.4811 20.5113 10.1361 19.2818C10.1556 18.347 10.4213 17.4423 10.9074 16.6586C11.3685 15.9151 12.0056 15.312 12.7571 14.9058C13.4285 15.5481 14.2005 15.8863 14.9999 15.8863C15.799 15.8863 16.5712 15.548 17.2429 14.9058C17.9944 15.312 18.6315 15.915 19.0925 16.6585C19.5785 17.4422 19.8441 18.3469 19.8636 19.2818C18.5186 20.5113 16.7959 21.1872 14.9999 21.1872Z" fill="#8646C6"/>
</svg>
