<svg viewBox="0 0 16 20" fill="none" xmlns="http://www.w3.org/2000/svg">
<path d="M4 4.38096C4 5.56917 4.4774 6.94093 5.27709 8.05041C6.18327 9.30762 7.32784 10 8.49995 10C9.67206 10 10.8166 9.30762 11.7229 8.05041C12.5226 6.94093 13 5.56917 13 4.38096C13 1.96531 10.9813 0 8.5 0C6.01871 0 4 1.96531 4 4.38096ZM8.49995 0.714381C10.5766 0.714381 12.2662 2.35922 12.2662 4.38096C12.2662 5.41229 11.8278 6.66108 11.1222 7.64007C10.3684 8.68582 9.41264 9.28562 8.49995 9.28562C7.58726 9.28562 6.63147 8.68582 5.87772 7.64007C5.17206 6.66108 4.73374 5.41224 4.73374 4.38096C4.73374 2.35922 6.42327 0.714381 8.49995 0.714381Z" fill="#8646C6"/>
<path d="M14.7297 12.0504C13.9205 10.7455 12.7814 9.70371 11.4354 9.03783C11.2925 8.96707 11.1222 8.99747 11.01 9.11363C10.1079 10.0485 9.06698 10.5427 7.99997 10.5427C6.93282 10.5427 5.89217 10.0486 4.99056 9.11368C4.87843 8.99742 4.7081 8.96707 4.56517 9.03778C3.21914 9.70366 2.0799 10.7454 1.27064 12.0503C0.439373 13.3907 0 14.9458 0 16.5476V16.5543C0 16.6641 0.0446312 16.7688 0.122861 16.8426C2.28333 18.8787 5.08082 20 7.99997 20C10.9191 20 13.7166 18.8786 15.8771 16.8426C15.9554 16.7688 16 16.6641 16 16.5544V16.5476C16 14.9458 15.5607 13.3907 14.7297 12.0504ZM7.99997 19.2218C5.32305 19.2218 2.7553 18.2144 0.750543 16.3818C0.779649 14.9885 1.17559 13.6401 1.90007 12.4719C2.58736 11.3637 3.53695 10.4649 4.65718 9.8594C5.65788 10.8167 6.80856 11.3208 7.99997 11.3208C9.19114 11.3208 10.342 10.8166 11.3433 9.85935C12.4634 10.4648 13.4129 11.3636 14.1001 12.4719C14.8245 13.64 15.2203 14.9884 15.2494 16.3818C13.2446 18.2145 10.6769 19.2218 7.99997 19.2218Z" fill="#8646C6"/>
</svg>
