<svg width="38" height="29" viewBox="0 0 38 29" fill="none" xmlns="http://www.w3.org/2000/svg">
<path d="M35.3437 27.5052H10.4694C9.4442 27.5052 8.61328 26.6743 8.61328 25.6491C8.61328 24.6239 9.4442 23.793 10.4694 23.793H35.3431C36.3683 23.793 37.1992 24.6239 37.1992 25.6491C37.1992 26.6743 36.3689 27.5052 35.3437 27.5052Z" fill="#00A8FF"/>
<path d="M35.3437 15.8567H10.4694C9.4442 15.8567 8.61328 15.0258 8.61328 14.0006C8.61328 12.9754 9.4442 12.1445 10.4694 12.1445H35.3431C36.3683 12.1445 37.1992 12.9754 37.1992 14.0006C37.1998 15.0258 36.3689 15.8567 35.3437 15.8567Z" fill="#00A8FF"/>
<path d="M35.3437 4.2044H10.4694C9.4442 4.2044 8.61328 3.37349 8.61328 2.3483C8.61328 1.32311 9.4442 0.492188 10.4694 0.492188H35.3431C36.3683 0.492188 37.1992 1.32311 37.1992 2.3483C37.1992 3.37349 36.3689 4.2044 35.3437 4.2044Z" fill="#00A8FF"/>
<path d="M2.49275 4.98551C3.86946 4.98551 4.98551 3.86946 4.98551 2.49275C4.98551 1.11604 3.86946 0 2.49275 0C1.11604 0 0 1.11604 0 2.49275C0 3.86946 1.11604 4.98551 2.49275 4.98551Z" fill="#00A8FF"/>
<path d="M2.49275 16.4933C3.86946 16.4933 4.98551 15.3773 4.98551 14.0006C4.98551 12.6239 3.86946 11.5078 2.49275 11.5078C1.11604 11.5078 0 12.6239 0 14.0006C0 15.3773 1.11604 16.4933 2.49275 16.4933Z" fill="#00A8FF"/>
<path d="M2.49275 28.0011C3.86946 28.0011 4.98551 26.8851 4.98551 25.5084C4.98551 24.1317 3.86946 23.0156 2.49275 23.0156C1.11604 23.0156 0 24.1317 0 25.5084C0 26.8851 1.11604 28.0011 2.49275 28.0011Z" fill="#00A8FF"/>
</svg>
