<svg width="11" height="11" viewBox="0 0 11 11" fill="none" xmlns="http://www.w3.org/2000/svg">
<path d="M7.45546 1.45331C7.37529 1.0535 7.02719 0.751587 6.61081 0.751587C6.51546 0.751587 6.43839 0.830005 6.43839 0.927019C6.43839 1.02403 6.51546 1.10245 6.61081 1.10245C6.89598 1.10245 7.12805 1.33858 7.12805 1.62875C7.12805 1.91891 6.89598 2.15504 6.61081 2.15504C6.51546 2.15504 6.43839 2.23346 6.43839 2.33047C6.43839 2.42749 6.51546 2.5059 6.61081 2.5059C7.02701 2.5059 7.37529 2.20399 7.45546 1.80418L9.71425 1.80418V3.38306L0.40391 3.38306L0.40391 1.80418H2.8177L3.33494 1.80418C3.43029 1.80418 3.50736 1.72576 3.50736 1.62875C3.50736 1.53173 3.43029 1.45331 3.33494 1.45331H3.02184C3.09322 1.24946 3.28288 1.10245 3.50736 1.10245C3.79253 1.10245 4.0246 1.33858 4.0246 1.62875C4.0246 1.91891 3.79253 2.15504 3.50736 2.15504C3.41201 2.15504 3.33494 2.23346 3.33494 2.33047C3.33494 2.42749 3.41201 2.5059 3.50736 2.5059C3.9827 2.5059 4.36943 2.11241 4.36943 1.62875C4.36943 1.14508 3.9827 0.751587 3.50736 0.751587C3.09115 0.751587 2.74288 1.0535 2.6627 1.45331H0.059082L0.059082 3.73393L0.059082 10.7512H10.0591V3.73393V1.45331L7.45546 1.45331ZM9.71425 10.4003H0.40391L0.40391 3.73393L9.71425 3.73393V10.4003Z" fill="#525252"/>
<path d="M4.54212 1.10184C4.82743 1.10184 5.05961 1.33797 5.05961 1.62814C5.05961 1.9183 4.82743 2.15443 4.54212 2.15443C4.44673 2.15443 4.36963 2.23285 4.36963 2.32986C4.36963 2.42688 4.44673 2.50529 4.54212 2.50529C5.0177 2.50529 5.4046 2.1118 5.4046 1.62814C5.4046 1.14447 5.0177 0.750977 4.54212 0.750977C4.44673 0.750977 4.36963 0.829395 4.36963 0.926408C4.36963 1.02342 4.44673 1.10184 4.54212 1.10184Z" fill="#525252"/>
<path d="M5.57679 1.10294C5.8621 1.10294 6.09428 1.33907 6.09428 1.62923C6.09428 1.9194 5.8621 2.15553 5.57679 2.15553C5.4814 2.15553 5.4043 2.23395 5.4043 2.33096C5.4043 2.42798 5.4814 2.50639 5.57679 2.50639C6.05236 2.50639 6.43927 2.1129 6.43927 1.62923C6.43927 1.14557 6.05236 0.752075 5.57679 0.752075C5.4814 0.752075 5.4043 0.830493 5.4043 0.927507C5.4043 1.02452 5.4814 1.10294 5.57679 1.10294Z" fill="#525252"/>
<path d="M3.85218 5.13761C3.94745 5.13761 4.02468 5.05906 4.02468 4.96217C4.02468 4.86529 3.94745 4.78674 3.85218 4.78674C3.75692 4.78674 3.67969 4.86529 3.67969 4.96217C3.67969 5.05906 3.75692 5.13761 3.85218 5.13761Z" fill="#525252"/>
<path d="M5.05922 5.13773C5.15448 5.13773 5.23171 5.05919 5.23171 4.9623C5.23171 4.86541 5.15448 4.78687 5.05922 4.78687C4.96395 4.78687 4.88672 4.86541 4.88672 4.9623C4.88672 5.05919 4.96395 5.13773 5.05922 5.13773Z" fill="#525252"/>
<path d="M6.26625 5.13651C6.36151 5.13651 6.43874 5.05796 6.43874 4.96108C6.43874 4.86419 6.36151 4.78564 6.26625 4.78564C6.17098 4.78564 6.09375 4.86419 6.09375 4.96108C6.09375 5.05796 6.17098 5.13651 6.26625 5.13651Z" fill="#525252"/>
<path d="M7.47328 5.13675C7.56854 5.13675 7.64577 5.05821 7.64577 4.96132C7.64577 4.86443 7.56854 4.78589 7.47328 4.78589C7.37801 4.78589 7.30078 4.86443 7.30078 4.96132C7.30078 5.05821 7.37801 5.13675 7.47328 5.13675Z" fill="#525252"/>
<path d="M8.68031 5.13687C8.77558 5.13687 8.8528 5.05833 8.8528 4.96144C8.8528 4.86455 8.77558 4.78601 8.68031 4.78601C8.58504 4.78601 8.50781 4.86455 8.50781 4.96144C8.50781 5.05833 8.58504 5.13687 8.68031 5.13687Z" fill="#525252"/>
<path d="M1.4391 6.54105C1.53436 6.54105 1.61159 6.46251 1.61159 6.36562C1.61159 6.26873 1.53436 6.19019 1.4391 6.19019C1.34383 6.19019 1.2666 6.26873 1.2666 6.36562C1.2666 6.46251 1.34383 6.54105 1.4391 6.54105Z" fill="#525252"/>
<path d="M2.64515 6.54105C2.74042 6.54105 2.81765 6.46251 2.81765 6.36562C2.81765 6.26873 2.74042 6.19019 2.64515 6.19019C2.54989 6.19019 2.47266 6.26873 2.47266 6.36562C2.47266 6.46251 2.54989 6.54105 2.64515 6.54105Z" fill="#525252"/>
<path d="M3.85218 6.54129C3.94745 6.54129 4.02468 6.46275 4.02468 6.36586C4.02468 6.26897 3.94745 6.19043 3.85218 6.19043C3.75692 6.19043 3.67969 6.26897 3.67969 6.36586C3.67969 6.46275 3.75692 6.54129 3.85218 6.54129Z" fill="#525252"/>
<path d="M5.05922 6.53995C5.15448 6.53995 5.23171 6.46141 5.23171 6.36452C5.23171 6.26763 5.15448 6.18909 5.05922 6.18909C4.96395 6.18909 4.88672 6.26763 4.88672 6.36452C4.88672 6.46141 4.96395 6.53995 5.05922 6.53995Z" fill="#525252"/>
<path d="M6.26625 6.5402C6.36151 6.5402 6.43874 6.46165 6.43874 6.36476C6.43874 6.26787 6.36151 6.18933 6.26625 6.18933C6.17098 6.18933 6.09375 6.26787 6.09375 6.36476C6.09375 6.46165 6.17098 6.5402 6.26625 6.5402Z" fill="#525252"/>
<path d="M7.4723 6.54032C7.56757 6.54032 7.6448 6.46177 7.6448 6.36489C7.6448 6.268 7.56757 6.18945 7.4723 6.18945C7.37703 6.18945 7.2998 6.268 7.2998 6.36489C7.2998 6.46177 7.37703 6.54032 7.4723 6.54032Z" fill="#525252"/>
<path d="M8.67982 6.54056C8.77509 6.54056 8.85232 6.46202 8.85232 6.36513C8.85232 6.26824 8.77509 6.1897 8.67982 6.1897C8.58455 6.1897 8.50732 6.26824 8.50732 6.36513C8.50732 6.46202 8.58455 6.54056 8.67982 6.54056Z" fill="#525252"/>
<path d="M1.4391 7.76859C1.53436 7.76859 1.61159 7.69004 1.61159 7.59316C1.61159 7.49627 1.53436 7.41772 1.4391 7.41772C1.34383 7.41772 1.2666 7.49627 1.2666 7.59316C1.2666 7.69004 1.34383 7.76859 1.4391 7.76859Z" fill="#525252"/>
<path d="M2.64564 7.76883C2.74091 7.76883 2.81814 7.69029 2.81814 7.5934C2.81814 7.49651 2.74091 7.41797 2.64564 7.41797C2.55037 7.41797 2.47314 7.49651 2.47314 7.5934C2.47314 7.69029 2.55037 7.76883 2.64564 7.76883Z" fill="#525252"/>
<path d="M3.85218 7.76883C3.94745 7.76883 4.02468 7.69029 4.02468 7.5934C4.02468 7.49651 3.94745 7.41797 3.85218 7.41797C3.75692 7.41797 3.67969 7.49651 3.67969 7.5934C3.67969 7.69029 3.75692 7.76883 3.85218 7.76883Z" fill="#525252"/>
<path d="M5.05922 7.76908C5.15448 7.76908 5.23171 7.69053 5.23171 7.59364C5.23171 7.49676 5.15448 7.41821 5.05922 7.41821C4.96395 7.41821 4.88672 7.49676 4.88672 7.59364C4.88672 7.69053 4.96395 7.76908 5.05922 7.76908Z" fill="#525252"/>
<path d="M6.26625 7.7692C6.36151 7.7692 6.43874 7.69066 6.43874 7.59377C6.43874 7.49688 6.36151 7.41833 6.26625 7.41833C6.17098 7.41833 6.09375 7.49688 6.09375 7.59377C6.09375 7.69066 6.17098 7.7692 6.26625 7.7692Z" fill="#525252"/>
<path d="M7.4723 7.76932C7.56757 7.76932 7.6448 7.69078 7.6448 7.59389C7.6448 7.497 7.56757 7.41846 7.4723 7.41846C7.37703 7.41846 7.2998 7.497 7.2998 7.59389C7.2998 7.69078 7.37703 7.76932 7.4723 7.76932Z" fill="#525252"/>
<path d="M8.67982 7.7681C8.77509 7.7681 8.85232 7.68956 8.85232 7.59267C8.85232 7.49578 8.77509 7.41724 8.67982 7.41724C8.58455 7.41724 8.50732 7.49578 8.50732 7.59267C8.50732 7.68956 8.58455 7.7681 8.67982 7.7681Z" fill="#525252"/>
<path d="M1.43861 9.17215C1.53388 9.17215 1.6111 9.09361 1.6111 8.99672C1.6111 8.89983 1.53388 8.82129 1.43861 8.82129C1.34334 8.82129 1.26611 8.89983 1.26611 8.99672C1.26611 9.09361 1.34334 9.17215 1.43861 9.17215Z" fill="#525252"/>
<path d="M2.64515 9.1724C2.74042 9.1724 2.81765 9.09385 2.81765 8.99696C2.81765 8.90008 2.74042 8.82153 2.64515 8.82153C2.54989 8.82153 2.47266 8.90008 2.47266 8.99696C2.47266 9.09385 2.54989 9.1724 2.64515 9.1724Z" fill="#525252"/>
<path d="M3.85218 9.17252C3.94745 9.17252 4.02468 9.09397 4.02468 8.99709C4.02468 8.9002 3.94745 8.82166 3.85218 8.82166C3.75692 8.82166 3.67969 8.9002 3.67969 8.99709C3.67969 9.09397 3.75692 9.17252 3.85218 9.17252Z" fill="#525252"/>
<path d="M5.05922 9.17264C5.15448 9.17264 5.23171 9.0941 5.23171 8.99721C5.23171 8.90032 5.15448 8.82178 5.05922 8.82178C4.96395 8.82178 4.88672 8.90032 4.88672 8.99721C4.88672 9.0941 4.96395 9.17264 5.05922 9.17264Z" fill="#525252"/>
<path d="M6.26625 9.17154C6.36151 9.17154 6.43874 9.093 6.43874 8.99611C6.43874 8.89922 6.36151 8.82068 6.26625 8.82068C6.17098 8.82068 6.09375 8.89922 6.09375 8.99611C6.09375 9.093 6.17098 9.17154 6.26625 9.17154Z" fill="#525252"/>
</svg>
