<svg width="25" height="25" viewBox="0 0 25 25" fill="none" xmlns="http://www.w3.org/2000/svg">
<path d="M12.4999 0C5.59643 0 0 5.59654 0 12.4997C0 19.4028 5.59643 25 12.4998 25C19.4032 25 25 19.403 25 12.4997C25 5.59629 19.4032 0 12.4999 0ZM3.39431 17.2081C3.39431 13.3033 6.8237 13.3041 7.58471 12.2831L7.67179 11.8175C6.60261 11.2754 5.84785 9.96932 5.84785 8.44131C5.84785 6.42846 7.1572 4.79645 8.77198 4.79645C10.0435 4.79645 11.1224 5.81012 11.5251 7.22297C9.90758 7.73697 8.71106 9.49081 8.71106 11.5757C8.71106 13.011 9.27691 14.3307 10.2058 15.1691C10.0567 15.2456 9.89075 15.3236 9.74808 15.3904C8.99898 15.7419 7.96063 16.2304 7.21154 17.2081H3.39431ZM12.5379 20.3422V20.3421H12.4615H7.1222C7.1222 16.4374 10.5516 16.4384 11.3126 15.4174L11.3997 14.9519C10.3305 14.4098 9.57574 13.1037 9.57574 11.5757C9.57574 9.56281 10.8851 7.9308 12.4999 7.9308C14.1147 7.9308 15.424 9.56281 15.424 11.5757C15.424 13.0905 14.6827 14.3888 13.6277 14.9391L13.7269 15.4684C14.5618 16.4399 17.8771 16.5033 17.8771 20.3422H12.5379ZM17.7879 17.2083V17.2081C17.0385 16.2305 16.0002 15.7421 15.2511 15.3907C15.1037 15.3215 14.9402 15.2448 14.7942 15.1698C15.7223 14.3303 16.2888 13.0078 16.2888 11.5757C16.2888 9.49106 15.0927 7.73755 13.4756 7.22338C13.878 5.81029 14.9569 4.79662 16.2287 4.79662C17.8436 4.79662 19.1528 6.42863 19.1528 8.44147C19.1528 9.95632 18.4115 11.2545 17.3565 11.8049L17.4557 12.3342C18.2906 13.3056 21.6059 13.3688 21.6059 17.2083H17.7879Z" fill="#00A8FF"/>
</svg>
