<svg width="11" height="11" viewBox="0 0 11 11" fill="none" xmlns="http://www.w3.org/2000/svg">
<path d="M8.48533 10.751H6.26775C6.18293 10.751 6.11409 10.6831 6.11409 10.5995V7.5146H4.00376V10.5995C4.00376 10.6831 3.93493 10.751 3.85011 10.751H1.63191C1.54709 10.751 1.47825 10.6831 1.47825 10.5995V5.56702H0.212733C0.149734 5.56702 0.0931878 5.52914 0.0698319 5.47156C0.0467833 5.41399 0.0615344 5.34823 0.107017 5.3055L4.95275 0.792454C5.01206 0.736999 5.10456 0.737302 5.16418 0.792454L10.0111 5.3055C10.0566 5.34823 10.0714 5.41399 10.0483 5.47156C10.025 5.52914 9.96843 5.56702 9.90543 5.56702H8.63899V10.5995C8.63899 10.6831 8.57015 10.751 8.48533 10.751ZM6.42141 10.4479H8.33167V5.4155C8.33167 5.33186 8.40051 5.26399 8.48533 5.26399H9.51883L5.05847 1.11094L0.599335 5.26399H1.63191C1.71673 5.26399 1.78557 5.33186 1.78557 5.4155V10.4479H3.69645V7.36308C3.69645 7.27945 3.76529 7.21157 3.85011 7.21157H6.26775C6.35257 7.21157 6.42141 7.27945 6.42141 7.36308V10.4479Z" fill="#525252"/>
</svg>
