<svg width="11" height="11" viewBox="0 0 11 11" fill="none" xmlns="http://www.w3.org/2000/svg">
<path d="M9.22808 8.54898L7.63592 7.68061C7.48575 7.59861 7.39242 7.43389 7.39242 7.25061V6.63589C7.43058 6.58498 7.47075 6.52698 7.51225 6.46298C7.71875 6.14479 7.88425 5.79061 8.00458 5.40861C8.23975 5.29098 8.39242 5.03734 8.39242 4.75098V4.0237C8.39242 3.84861 8.33242 3.67898 8.22575 3.54643V2.57934C8.23508 2.47934 8.27175 1.88407 7.87708 1.39298C7.53475 0.966977 6.97925 0.750977 6.22575 0.750977C5.47225 0.750977 4.91675 0.966977 4.57442 1.39279C4.33525 1.69043 4.25475 2.0257 4.23042 2.26643C3.94475 2.10534 3.60808 2.0237 3.22575 2.0237C1.49425 2.0237 1.39342 3.6337 1.39242 3.66007V4.49261C1.28442 4.62098 1.22575 4.76916 1.22575 4.91625V5.54425C1.22575 5.74043 1.30625 5.92334 1.44425 6.04698C1.58175 6.61243 1.91992 7.0397 2.05158 7.1897V7.68843C2.05158 7.83152 1.98025 7.96279 1.85642 8.03661L0.747582 8.79534C0.322915 9.04807 0.059082 9.53298 0.059082 10.0606V10.751H2.39242H2.72575H10.0591V10.0159C10.0591 9.39079 9.74058 8.82861 9.22808 8.54898ZM2.39242 9.98043V10.3873H0.392415V10.0606C0.392415 9.66607 0.589749 9.30352 0.915915 9.10916L2.02458 8.35043C2.24675 8.21825 2.38475 7.96479 2.38475 7.68843V7.03552L2.33175 6.98152C2.32742 6.97716 1.88458 6.52079 1.75375 5.89879L1.73858 5.82679L1.68158 5.7868C1.60492 5.73261 1.55908 5.64189 1.55908 5.54425V4.91625C1.55908 4.85079 1.59992 4.77298 1.67092 4.7028L1.72575 4.64879L1.72542 3.67061C1.72842 3.61843 1.81525 2.38734 3.22575 2.38734C3.62458 2.38734 3.96042 2.48789 4.22575 2.68625V3.54643C4.11908 3.67898 4.05908 3.84861 4.05908 4.0237V4.75098C4.05908 4.80625 4.06492 4.86061 4.07592 4.91334C4.08042 4.93443 4.08942 4.9537 4.09558 4.97407C4.10475 5.00461 4.11208 5.03607 4.12492 5.06498C4.12508 5.06534 4.12525 5.06552 4.12542 5.06589C4.16808 5.16189 4.23025 5.2477 4.30858 5.31625C4.30942 5.3197 4.31042 5.32279 4.31125 5.32607C4.32125 5.3677 4.33175 5.40916 4.34308 5.4497L4.35658 5.49716C4.35892 5.50552 4.36175 5.51407 4.36425 5.52243C4.37008 5.54207 4.37575 5.56152 4.38175 5.58079C4.39175 5.61261 4.40225 5.64552 4.41442 5.68134C4.41958 5.69625 4.42525 5.7097 4.43058 5.72443C4.44425 5.76243 4.45792 5.79916 4.47225 5.83552C4.47575 5.84425 4.47875 5.8537 4.48225 5.86225L4.49158 5.88516C4.49592 5.8957 4.50042 5.90516 4.50475 5.91552C4.52108 5.95443 4.53708 5.99207 4.55375 6.02843C4.55642 6.03425 4.55892 6.04061 4.56158 6.04643C4.57208 6.06916 4.58258 6.09061 4.59308 6.11243C4.61108 6.14989 4.62875 6.18516 4.64642 6.21934C4.65508 6.23607 4.66358 6.25243 4.67208 6.26825C4.69608 6.31298 4.71892 6.35407 4.74108 6.39225C4.74592 6.40043 4.75058 6.40898 4.75525 6.41679C4.79558 6.48498 4.83058 6.54025 4.85958 6.58334C4.86725 6.59479 4.87392 6.60461 4.88042 6.61425C4.88408 6.61952 4.88908 6.62716 4.89225 6.63189V7.23352C4.89225 7.40952 4.80425 7.57098 4.66275 7.65534L4.22175 7.9177L4.14492 7.91025L4.11358 7.98207L3.17592 8.54007C2.69258 8.82807 2.39242 9.3797 2.39242 9.98043ZM9.72575 10.3873H2.72575V9.98043C2.72575 9.51298 2.95942 9.08334 3.33558 8.8597L4.82242 7.97498C5.07125 7.82679 5.22575 7.54261 5.22575 7.2337V6.50316V6.50298L5.19342 6.46079L5.18708 6.45261C5.18675 6.45207 5.17642 6.43843 5.15958 6.41443C5.15858 6.41298 5.15758 6.41152 5.15642 6.41007C5.14758 6.39752 5.13725 6.38243 5.12542 6.36443C5.12525 6.36407 5.12508 6.36389 5.12492 6.36352C5.10008 6.32589 5.06892 6.27698 5.03425 6.21807C5.03342 6.21679 5.03275 6.21534 5.03192 6.21407C5.01558 6.18625 4.99825 6.15589 4.98058 6.1237C4.97925 6.12134 4.97792 6.11898 4.97658 6.11643C4.93892 6.04752 4.89892 5.96952 4.85908 5.88316C4.85908 5.88316 4.85892 5.88298 4.85892 5.88279C4.83775 5.83643 4.81658 5.7877 4.79592 5.73698C4.79308 5.72989 4.79008 5.72298 4.78725 5.71589C4.77808 5.69316 4.76892 5.66934 4.75958 5.64479C4.75625 5.63589 4.75292 5.62661 4.74958 5.61752C4.74092 5.5937 4.73208 5.5697 4.72275 5.54225C4.70575 5.49279 4.68975 5.44116 4.67442 5.38789L4.66525 5.35552C4.66425 5.35189 4.66308 5.34825 4.66208 5.34443C4.64642 5.28698 4.63142 5.22825 4.61875 5.16789L4.60358 5.09589L4.54675 5.05589C4.45008 4.98789 4.39242 4.87389 4.39242 4.75098V4.0237C4.39242 3.9217 4.43208 3.82661 4.50408 3.75552L4.55908 3.70152V2.56916V2.50479L4.55458 2.50098C4.54892 2.3697 4.55608 1.96734 4.82508 1.63261C5.10125 1.28879 5.57258 1.11461 6.22575 1.11461C6.87658 1.11461 7.34692 1.28752 7.62342 1.62879C7.94792 2.02898 7.89425 2.54098 7.89392 2.54534L7.89242 3.70152L7.94742 3.7557C8.01942 3.82661 8.05908 3.9217 8.05908 4.0237V4.75098C8.05908 4.9097 7.96375 5.04861 7.82208 5.09625L7.73908 5.12407L7.71242 5.21407C7.60092 5.59243 7.44208 5.94189 7.24008 6.25279C7.19058 6.32934 7.14242 6.39716 7.10058 6.44898L7.05908 6.50061V7.25061C7.05908 7.57243 7.22292 7.8617 7.48675 8.0057L9.07892 8.87407C9.47792 9.0917 9.72575 9.52916 9.72575 10.0159V10.3873Z" fill="#525252"/>
</svg>
