<svg width="56" height="56" viewBox="0 0 56 56" fill="none" xmlns="http://www.w3.org/2000/svg">
<circle cx="28" cy="28" r="28" fill="#00A8FF"/>
<path d="M21.2939 34.5469H20.997L18.4842 36.9375L15.9715 34.5469H15.6745C14.1997 34.5469 13 35.7467 13 37.2213V41.9992H23.9683V37.2213C23.9683 35.7467 22.7686 34.5469 21.2939 34.5469ZM22.5823 40.6133H14.386V37.2213C14.386 36.591 14.841 36.0648 15.4399 35.9543L18.4841 38.8506L21.5283 35.9543C22.1273 36.0648 22.5823 36.591 22.5823 37.2213V40.6133Z" fill="white"/>
<path d="M18.4837 34.4165C20.3874 34.4165 21.9362 32.8678 21.9362 30.9641C21.9362 29.0605 20.3874 27.5117 18.4837 27.5117C16.58 27.5117 15.0312 29.0605 15.0312 30.9641C15.0312 32.8678 16.58 34.4165 18.4837 34.4165ZM18.4837 28.8977C19.6232 28.8977 20.5502 29.8247 20.5502 30.9641C20.5502 32.1036 19.6232 33.0306 18.4837 33.0306C17.3442 33.0306 16.4172 32.1036 16.4172 30.9641C16.4172 29.8247 17.3442 28.8977 18.4837 28.8977Z" fill="white"/>
<path d="M39.3681 20.0352H39.071L36.5583 22.4258L34.0455 20.0352H33.7486C32.2739 20.0352 31.0742 21.2348 31.0742 22.7095V27.4874H42.0425V22.7095C42.0425 21.2348 40.8427 20.0352 39.3681 20.0352ZM40.6565 26.1015H32.4602V22.7095C32.4602 22.0792 32.9152 21.5531 33.5141 21.4425L36.5583 24.3389L39.6026 21.4425C40.2015 21.553 40.6565 22.0792 40.6565 22.7095V26.1015Z" fill="white"/>
<path d="M36.558 19.905C38.4616 19.905 40.0104 18.3563 40.0104 16.4526C40.0104 14.5489 38.4616 13 36.558 13C34.6542 13 33.1055 14.5489 33.1055 16.4525C33.1055 18.3562 34.6542 19.905 36.558 19.905ZM36.558 14.386C37.6974 14.386 38.6244 15.313 38.6244 16.4525C38.6244 17.5919 37.6974 18.519 36.558 18.519C35.4184 18.519 34.4914 17.5919 34.4914 16.4525C34.4914 15.313 35.4184 14.386 36.558 14.386Z" fill="white"/>
<path d="M32.0464 33.8138L33.0264 34.7939L35.3587 32.4616V38.0891H28.0273V39.4751H36.7446V32.4616L39.0768 34.7939L40.0569 33.8138L36.0517 29.8086L32.0464 33.8138Z" fill="white"/>
<path d="M17.7537 21.4823L15.4215 19.15L14.4414 20.1301L18.4466 24.1353L22.4519 20.1301L21.4719 19.15L19.1396 21.4823V15.8547H26.471V14.4688H17.7537V21.4823Z" fill="white"/>
</svg>
