<svg width="11" height="11" viewBox="0 0 11 11" fill="none" xmlns="http://www.w3.org/2000/svg">
<path d="M3.30841 5.63429C3.17013 5.49597 2.9863 5.4198 2.79077 5.4198C2.59525 5.4198 2.4114 5.49597 2.27314 5.63429C1.98773 5.91985 1.98773 6.3845 2.27314 6.67006C2.4114 6.80836 2.59527 6.88455 2.79079 6.88455C2.98632 6.88455 3.17017 6.80836 3.30839 6.67006C3.44667 6.53173 3.52282 6.3478 3.52282 6.15218C3.52284 5.95653 3.44669 5.77262 3.30841 5.63429ZM3.10134 6.46289C3.01839 6.5459 2.9081 6.5916 2.79079 6.5916C2.67347 6.5916 2.56316 6.5459 2.48017 6.46289C2.30894 6.29158 2.30894 6.01278 2.48019 5.84144C2.56314 5.75845 2.67343 5.71275 2.79077 5.71275C2.9081 5.71275 3.01839 5.75845 3.10136 5.84146C3.18433 5.92444 3.23003 6.03481 3.23003 6.15218C3.23001 6.26954 3.18433 6.37987 3.10134 6.46289Z" fill="#525252"/>
<path d="M5.24104 7.56691C5.10278 7.42858 4.91895 7.35242 4.72341 7.35242C4.52786 7.35242 4.34401 7.42858 4.20575 7.56691C3.92034 7.85249 3.92034 8.31714 4.20577 8.60268C4.34401 8.74101 4.52784 8.81718 4.72339 8.81718C4.91893 8.81718 5.10278 8.74099 5.24104 8.60266C5.3793 8.46436 5.45545 8.28042 5.45545 8.08481C5.45547 7.88917 5.37932 7.70524 5.24104 7.56691ZM5.03397 8.39552C4.951 8.47852 4.84069 8.52423 4.72337 8.52423C4.60604 8.52423 4.49575 8.47852 4.4128 8.39552C4.24155 8.22421 4.24155 7.94541 4.4128 7.77404C4.49577 7.69105 4.60606 7.64535 4.72339 7.64535C4.84071 7.64535 4.95102 7.69105 5.03399 7.77406C5.11692 7.85706 5.16262 7.96741 5.16262 8.08479C5.16258 8.20217 5.11692 8.31251 5.03397 8.39552Z" fill="#525252"/>
<path d="M5.24156 5.63386C5.18439 5.57664 5.0917 5.57664 5.03451 5.63384L2.27383 8.39584C2.21667 8.45303 2.21667 8.54579 2.27383 8.60298C2.30241 8.63157 2.33989 8.64589 2.37735 8.64589C2.41481 8.64589 2.45229 8.63159 2.48086 8.60298L5.24156 5.841C5.29875 5.78379 5.29875 5.69103 5.24156 5.63386Z" fill="#525252"/>
<path d="M9.93738 0.8733C9.7397 0.675533 9.35765 0.718189 8.83258 0.996775C8.37912 1.23738 7.85973 1.63479 7.40756 2.08716C7.2316 2.26322 7.06785 2.44508 6.91967 2.6286L4.8654 2.3821C4.83827 2.37878 4.80956 2.37702 4.77989 2.37702C4.66081 2.37741 4.53042 2.40338 4.40333 2.45261C4.27136 2.50437 4.16282 2.57194 4.08083 2.65358L2.24759 4.48747C2.19058 4.54469 2.19058 4.63746 2.24759 4.6947C2.27531 4.72223 2.31201 4.73747 2.35124 4.73747C2.39029 4.73747 2.42699 4.72223 2.4547 4.6947L4.28774 2.86061C4.33714 2.8106 4.42009 2.76023 4.5095 2.72566C4.59852 2.6909 4.69905 2.66999 4.77831 2.66999H4.77987C4.79782 2.66999 4.81481 2.67097 4.83044 2.67292L7.50619 2.99401C7.57471 3.00182 7.65006 3.04108 7.70746 3.09908C7.76543 3.15649 7.80467 3.23189 7.81248 3.30044L7.86746 3.75897C7.64342 3.93007 7.42281 4.07158 7.21692 4.17457C7.17887 4.19361 7.13897 4.21217 7.09825 4.2297C7.0667 4.10329 7.00145 3.98734 6.90698 3.89284C6.76967 3.75547 6.58709 3.67981 6.39291 3.67981C6.19872 3.67981 6.01616 3.75547 5.87881 3.89284C5.59536 4.17645 5.59536 4.63789 5.87883 4.92148C6.01614 5.05885 6.19874 5.13451 6.39291 5.13451C6.58709 5.13451 6.76969 5.05885 6.90698 4.92148C7.01174 4.81667 7.08047 4.68546 7.10723 4.54287C7.18145 4.51479 7.26139 4.47985 7.34785 4.43661C7.52686 4.34706 7.71559 4.23077 7.90752 4.09331L8.1334 5.97746C8.13535 5.99309 8.13633 6.01007 8.13633 6.02805C8.13652 6.10773 8.11584 6.20889 8.08068 6.29855C8.04613 6.388 7.99576 6.47079 7.9458 6.52041L4.08083 10.3869C4.03515 10.4326 3.97386 10.4578 3.90827 10.458C3.84269 10.4578 3.78138 10.4326 3.73571 10.3869L0.422948 7.07267C0.377265 7.02697 0.352089 6.96565 0.351894 6.90003C0.352089 6.83442 0.377265 6.77308 0.422948 6.7274L2.04046 5.10893C2.09765 5.05189 2.09765 4.95892 2.04046 4.90188C2.01294 4.87416 1.97605 4.85891 1.93701 4.85891C1.89796 4.85891 1.86127 4.87416 1.83355 4.90188L0.215839 6.52013C0.164883 6.57131 0.125254 6.63106 0.0981249 6.69785C0.0721679 6.76251 0.059082 6.83047 0.059082 6.9C0.059082 6.96952 0.0721679 7.03748 0.0981249 7.10194C0.125254 7.16893 0.164883 7.2287 0.215839 7.27966L3.52878 10.5941C3.57974 10.6451 3.63927 10.6848 3.70603 10.7117C3.77044 10.7377 3.83839 10.751 3.90769 10.751H3.90886C3.97835 10.751 4.04608 10.7377 4.11052 10.7117C4.17728 10.6848 4.23702 10.6451 4.28796 10.5941L8.15275 6.72736C8.23436 6.64533 8.30189 6.53674 8.35344 6.40473C8.40264 6.27738 8.42879 6.14713 8.42918 6.02799C8.42918 5.9985 8.42742 5.96978 8.4241 5.94244L8.17773 3.88725C8.35969 3.74012 8.54185 3.57621 8.71892 3.39908C9.17199 2.9458 9.57011 2.42728 9.81115 1.97647C10.0913 1.45246 10.135 1.07099 9.93738 0.8733ZM6.30331 4.50391C6.37504 4.57568 6.48846 4.63733 6.66649 4.63733C6.69711 4.63733 6.72969 4.63547 6.76428 4.63156C6.74629 4.66121 6.72506 4.68913 6.69993 4.7143C6.61793 4.79635 6.50889 4.84154 6.39291 4.84154C6.27694 4.84154 6.1679 4.79635 6.08586 4.7143C5.91657 4.54492 5.91657 4.26934 6.08586 4.09997C6.1679 4.0179 6.27694 3.97272 6.39291 3.97272C6.50889 3.97272 6.61791 4.01792 6.69994 4.09995C6.76203 4.16209 6.80291 4.23974 6.81914 4.32416C6.68502 4.35491 6.56842 4.35487 6.51034 4.29678C6.45317 4.23957 6.36045 4.23958 6.30329 4.29678C6.24614 4.35397 6.24614 4.44671 6.30331 4.50391ZM9.55293 1.8383C9.32486 2.2648 8.94541 2.7582 8.51184 3.19195C8.38826 3.31558 8.26238 3.43212 8.13615 3.54065L8.10316 3.26542C8.08617 3.12794 8.02098 2.99864 7.91459 2.89181C7.80781 2.78538 7.67858 2.72015 7.54115 2.70315L7.26614 2.67017C7.3752 2.54306 7.49172 2.41726 7.61461 2.29429C8.64713 1.26129 9.57119 0.921272 9.73031 1.08045C9.80422 1.15437 9.77802 1.41736 9.55293 1.8383Z" fill="#525252"/>
</svg>
