<svg width="43" height="43" viewBox="0 0 43 43" fill="none" xmlns="http://www.w3.org/2000/svg">
<path d="M40.1937 21.85C40.5429 21.4292 40.5435 20.8196 40.1944 20.3995L33.6425 12.5241C33.427 12.2654 33.1061 12.1155 32.77 12.1157L9.47747 12.1173C8.85108 12.1173 8.34378 12.6246 8.34374 13.251L8.34237 29.0005C8.34227 29.627 8.84951 30.1342 9.47595 30.1341L32.7693 30.1331C33.1052 30.133 33.4253 29.9833 33.6408 29.725L40.1937 21.85ZM34.6593 22.6368C33.8247 22.6367 33.1482 21.9603 33.1474 21.125C33.148 20.2897 33.8249 19.6127 34.6599 19.6125C35.4953 19.6134 36.1724 20.2891 36.1718 21.1244C36.1715 21.9594 35.4941 22.6368 34.6593 22.6368Z" fill="#F55C5C"/>
</svg>
