<svg width="891" height="447" viewBox="0 0 891 447" fill="none" xmlns="http://www.w3.org/2000/svg">
<path d="M221.09 0.202354C216.033 0.202354 211.583 3.03531 209.358 7.4871L107.82 210.448H13.5633C6.48392 210.651 0.618164 216.519 0.618164 223.601C0.618164 230.684 6.28166 236.552 13.5633 236.754H107.82L209.358 439.715C211.583 444.167 216.235 447 221.09 447L877.853 446.798C885.134 446.798 891 440.929 891 433.645V13.153C891 5.86827 885.134 0 877.853 0L221.09 0.202354ZM864.705 420.492L229.181 420.694L137.149 236.754H209.156C215.831 269.738 246.576 292.402 280.152 288.962C313.728 285.522 339.214 257.394 339.214 223.601C339.214 189.808 313.728 161.681 280.152 158.241C246.576 154.801 216.033 177.464 209.156 210.448H137.149L228.978 26.5084L864.705 26.306V420.492ZM273.679 236.754C280.759 236.552 286.625 230.684 286.625 223.601C286.625 216.519 280.961 210.651 273.679 210.448H236.664C242.126 194.665 256.891 184.142 273.679 184.142C293.906 183.94 310.897 199.116 313.324 219.149C315.751 239.182 302.604 257.799 282.984 262.251C263.364 266.703 243.339 255.775 236.867 236.754H273.679Z" fill="black"/>
</svg>
