<svg width="11" height="11" viewBox="0 0 11 11" fill="none" xmlns="http://www.w3.org/2000/svg">
<path d="M5.05908 0.750977C2.29766 0.750977 0.059082 2.98955 0.059082 5.75098C0.059082 8.5124 2.29766 10.751 5.05908 10.751C7.8205 10.751 10.0591 8.5124 10.0591 5.75098C10.0555 2.99103 7.81903 0.754516 5.05908 0.750977ZM5.27358 10.3113V9.4318C5.27358 9.31334 5.17754 9.2173 5.05908 9.2173C4.94062 9.2173 4.84458 9.31334 4.84458 9.4318V10.3113C2.49256 10.199 0.611098 8.3175 0.498807 5.96548H1.37826C1.49672 5.96548 1.59276 5.86943 1.59276 5.75098C1.59276 5.63252 1.49672 5.53648 1.37826 5.53648H0.498807C0.611098 3.18445 2.49256 1.30299 4.84458 1.1907V2.07015C4.84458 2.18861 4.94062 2.28465 5.05908 2.28465C5.17754 2.28465 5.27358 2.18861 5.27358 2.07015V1.1907C7.6256 1.30299 9.50707 3.18445 9.61936 5.53648H8.73991C8.62145 5.53648 8.52541 5.63252 8.52541 5.75098C8.52541 5.86943 8.62145 5.96548 8.73991 5.96548H8.74205H9.6215C9.50913 8.31828 7.62644 10.2 5.27358 10.3113Z" fill="#525252"/>
</svg>
