<svg width="11" height="11" viewBox="0 0 11 11" fill="none" xmlns="http://www.w3.org/2000/svg">
<path d="M2.65604 3.32067C2.55653 2.61624 1.94943 2.08496 1.24394 2.08496C0.790233 2.08496 0.359339 2.30608 0.0914321 2.67667C0.03671 2.75225 0.0530823 2.85826 0.127913 2.91353C0.202499 2.9686 0.307715 2.95226 0.362339 2.87659C0.567411 2.5932 0.896924 2.42397 1.24389 2.42397C1.78344 2.42397 2.24762 2.83006 2.32373 3.36848C2.33573 3.45305 2.40756 3.51408 2.48972 3.51408C2.49753 3.51408 2.5056 3.51348 2.51361 3.51239C2.60535 3.49913 2.66912 3.41327 2.65604 3.32067Z" fill="#525252"/>
<path d="M7.27616 1.98668C7.17665 1.28225 6.56954 0.750977 5.86406 0.750977C5.41035 0.750977 4.97946 0.972097 4.71155 1.34268C4.65683 1.41826 4.6732 1.52428 4.74803 1.57955C4.82262 1.63462 4.92783 1.61828 4.98246 1.5426C5.18753 1.25921 5.51704 1.08998 5.86401 1.08998C6.40356 1.08998 6.86774 1.49607 6.94385 2.0345C6.95584 2.11907 7.02768 2.18009 7.10983 2.18009C7.11765 2.18009 7.12571 2.1795 7.13373 2.17841C7.22547 2.16515 7.28924 2.07929 7.27616 1.98668Z" fill="#525252"/>
<path d="M9.69879 3.88473L9.19532 3.03724C9.16504 2.98614 9.11041 2.95496 9.05141 2.95496H8.56894C8.47631 2.95496 8.40114 3.03088 8.40114 3.12443C8.40114 3.21799 8.47631 3.29391 8.56894 3.29391H8.95642L9.2585 3.8024H2.46711L2.76919 3.29391H2.94692C3.03955 3.29391 3.11473 3.21799 3.11473 3.12443C3.11473 3.03088 3.03955 2.95496 2.94692 2.95496H2.6742C2.6152 2.95496 2.56057 2.98614 2.53029 3.03724L2.02682 3.88473C1.9957 3.93716 1.99496 4.00236 2.02471 4.0555C2.05446 4.10863 2.11021 4.1415 2.17073 4.1415H9.55488C9.6154 4.1415 9.6711 4.10863 9.7009 4.0555C9.73069 4.00236 9.72991 3.93707 9.69879 3.88473Z" fill="#525252"/>
<path d="M8.86353 2.321C8.84002 2.28271 8.80251 2.25555 8.75915 2.24532L6.47139 1.70491C6.42807 1.69463 6.38245 1.70227 6.34459 1.72591C6.30683 1.74965 6.27989 1.78754 6.26976 1.83133L6.09723 2.57618C6.07609 2.6673 6.13214 2.75847 6.22241 2.77972C6.31263 2.80108 6.403 2.74447 6.42404 2.6533L6.55836 2.07356L8.51926 2.5368L8.21114 3.86735C8.19 3.95847 8.24605 4.04964 8.33632 4.0709C8.34925 4.07392 8.36208 4.07536 8.37476 4.07536C8.45097 4.07536 8.51995 4.02263 8.5379 3.94452L8.88427 2.44896C8.8945 2.40521 8.88703 2.35913 8.86353 2.321Z" fill="#525252"/>
<path d="M5.95249 2.72331L5.79958 1.41709C5.79437 1.37245 5.7718 1.33169 5.73679 1.30388C5.70179 1.27607 5.65759 1.26336 5.61319 1.26862L2.80629 1.6037C2.7143 1.61473 2.64851 1.69895 2.65938 1.79195L2.9143 3.97054C2.92443 4.05679 2.99685 4.1202 3.08078 4.1202C3.08732 4.1202 3.09406 4.11975 3.10074 4.11901C3.19268 4.10799 3.25847 4.02377 3.24765 3.93076L3.01239 1.92036L5.486 1.62511L5.61914 2.76299C5.63005 2.85594 5.71305 2.92199 5.80553 2.91146C5.89752 2.90054 5.9633 2.81627 5.95249 2.72331Z" fill="#525252"/>
<path d="M7.27879 3.90729L6.94568 2.50827C6.93526 2.46462 6.90807 2.42683 6.87016 2.40335C6.83226 2.38006 6.78678 2.37276 6.74327 2.38319L4.03976 3.03984C3.94964 3.06169 3.89418 3.15326 3.91581 3.24428L4.08229 3.94354C4.10392 4.03466 4.19458 4.09073 4.28466 4.06873C4.37478 4.04688 4.43024 3.95531 4.4086 3.86429L4.28131 3.32979L6.6585 2.75248L6.95237 3.98665C6.97081 4.06436 7.03964 4.1165 7.11541 4.1165C7.12844 4.1165 7.14161 4.11496 7.15484 4.11173C7.24496 4.08983 7.30042 3.99831 7.27879 3.90729Z" fill="#525252"/>
<path d="M9.7233 3.96255C9.71868 3.87247 9.64503 3.80176 9.55565 3.80176H2.17151C2.08212 3.80176 2.00847 3.87242 2.00385 3.96255L1.66819 10.5728C1.66583 10.6192 1.68245 10.6646 1.71411 10.6983C1.74582 10.7319 1.78978 10.751 1.8358 10.751H9.89121C9.93718 10.751 9.98118 10.7319 10.013 10.6983C10.0447 10.6646 10.0613 10.6193 10.059 10.5728L9.7233 3.96255ZM2.0124 10.412L2.33085 4.14071H9.3961L9.71455 10.412H2.0124Z" fill="#525252"/>
<path d="M7.12235 4.48035C6.84458 4.48035 6.61865 4.70842 6.61865 4.98883C6.61865 5.26924 6.84458 5.49731 7.12235 5.49731C7.40013 5.49731 7.62606 5.26924 7.62606 4.98883C7.62606 4.70842 7.40013 4.48035 7.12235 4.48035ZM7.12235 5.15836C7.02973 5.15836 6.95447 5.08233 6.95447 4.98888C6.95447 4.89543 7.02978 4.8194 7.12235 4.8194C7.21493 4.8194 7.29024 4.89543 7.29024 4.98888C7.29024 5.08233 7.21493 5.15836 7.12235 5.15836Z" fill="#525252"/>
<path d="M4.60575 4.48035C4.32798 4.48035 4.10205 4.70842 4.10205 4.98883C4.10205 5.26924 4.32798 5.49731 4.60575 5.49731C4.88353 5.49731 5.10946 5.26924 5.10946 4.98883C5.10946 4.70842 4.88353 4.48035 4.60575 4.48035ZM4.60575 5.15836C4.51318 5.15836 4.43787 5.08233 4.43787 4.98888C4.43787 4.89543 4.51318 4.8194 4.60575 4.8194C4.69833 4.8194 4.77364 4.89543 4.77364 4.98888C4.77364 5.08233 4.69833 5.15836 4.60575 5.15836Z" fill="#525252"/>
<path d="M7.12164 4.98816H7.10871C7.01608 4.98816 6.94091 5.06408 6.94091 5.15764C6.94091 5.18078 6.94543 5.20287 6.95384 5.22298V6.08984C6.95384 6.69729 6.46449 7.19157 5.86299 7.19157C5.26149 7.19157 4.77213 6.69734 4.77213 6.08984V5.15769C4.77213 5.06413 4.69696 4.98821 4.60433 4.98821C4.5117 4.98821 4.43652 5.06413 4.43652 5.15769V6.08989C4.43652 6.8843 5.07642 7.53058 5.86299 7.53058C6.64955 7.53058 7.28945 6.8843 7.28945 6.08989V5.15769C7.28945 5.06413 7.21427 4.98816 7.12164 4.98816Z" fill="#525252"/>
</svg>
