<svg width="25" height="25" viewBox="0 0 25 25" fill="none" xmlns="http://www.w3.org/2000/svg">
<path d="M12.0379 18.8969V18.8971H12.5379H17.877H18.377V18.3971C18.377 17.3624 18.1527 16.5499 17.779 15.9025C17.4062 15.2567 16.9025 14.8061 16.3908 14.4676C15.9472 14.1743 15.4813 13.9559 15.0941 13.7744C15.0417 13.7498 14.9906 13.7259 14.9413 13.7026C14.5731 13.5285 14.3341 13.4001 14.1897 13.2788L14.183 13.243C15.2486 12.5172 15.9239 11.1457 15.9239 9.63051C15.9239 7.44996 14.4879 5.48564 12.4998 5.48564C10.5117 5.48564 9.07566 7.44996 9.07566 9.63051C9.07566 11.1546 9.75968 12.533 10.8364 13.2548C10.7092 13.3707 10.4855 13.4982 10.1214 13.672C10.0546 13.7039 9.98431 13.7368 9.91116 13.7711C9.53688 13.9466 9.08808 14.1569 8.66057 14.4332C8.14 14.7696 7.62307 15.2192 7.23924 15.8696C6.85423 16.522 6.62212 17.3444 6.62212 18.3969V18.8969H7.12212H12.0379ZM0.5 12.4999C0.5 5.87269 5.87257 0.5 12.4998 0.5C19.127 0.5 24.5 5.87255 24.5 12.4999C24.5 19.1269 19.127 24.5 12.4998 24.5C5.87259 24.5 0.5 19.1269 0.5 12.4999Z" fill="white" stroke="#00A8FF"/>
</svg>
