<svg width="12" height="16" viewBox="0 0 12 16" fill="none" xmlns="http://www.w3.org/2000/svg">
<path d="M10.965 1.78763H8.938V0.470412C8.938 0.205274 8.72414 0 8.45902 0C8.4333 0 8.41614 0.00858824 8.40776 0.0171569C8.39918 0.00858824 8.38202 0 8.37345 0H3.60939H3.57527H3.54096C3.27584 0 3.07057 0.205274 3.07057 0.470412V1.78765H1.03496C0.453255 1.78765 0 2.2409 0 2.82261V3.57529V4.5161H0.898098V14.1553C0.898098 14.737 1.34278 15.1817 1.92449 15.1817H10.0755C10.6572 15.1817 11.1105 14.737 11.1105 14.1553V4.5161H12V3.57529V2.82261C12 2.2409 11.5466 1.78763 10.965 1.78763ZM4.01137 0.940804H7.98863V1.78763H4.01137V0.940804ZM10.1611 14.1553C10.1611 14.2154 10.1354 14.2409 10.0755 14.2409H1.92449C1.86465 14.2409 1.83892 14.2153 1.83892 14.1553V4.51608H10.1611V14.1553ZM11.0506 3.57527H0.949372V2.82259C0.949372 2.76273 0.975098 2.72843 1.03494 2.72843H10.965C11.0249 2.72843 11.0506 2.76273 11.0506 2.82259V3.57527Z" fill="#F75A5A"/>
<path d="M8.67203 5.62109H7.72266V13.4043H8.67203V5.62109Z" fill="#F75A5A"/>
<path d="M6.48453 5.62109H5.53516V13.4043H6.48453V5.62109Z" fill="#F75A5A"/>
<path d="M4.29312 5.62109H3.34375V13.4043H4.29312V5.62109Z" fill="#F75A5A"/>
</svg>
