<svg width="39" height="39" viewBox="0 0 39 39" fill="none" xmlns="http://www.w3.org/2000/svg">
<path d="M33.2886 25.2114C31.1647 23.0875 28.6367 21.5153 25.8786 20.5635C28.8327 18.5289 30.7734 15.1238 30.7734 11.2734C30.7734 5.05728 25.7162 0 19.5 0C13.2838 0 8.22656 5.05728 8.22656 11.2734C8.22656 15.1238 10.1673 18.5289 13.1215 20.5635C10.3633 21.5153 7.83534 23.0875 5.71144 25.2114C2.02838 28.8945 0 33.7914 0 39H3.04688C3.04688 29.9277 10.4277 22.5469 19.5 22.5469C28.5723 22.5469 35.9531 29.9277 35.9531 39H39C39 33.7914 36.9716 28.8945 33.2886 25.2114ZM19.5 19.5C14.9639 19.5 11.2734 15.8096 11.2734 11.2734C11.2734 6.73725 14.9639 3.04688 19.5 3.04688C24.0361 3.04688 27.7266 6.73725 27.7266 11.2734C27.7266 15.8096 24.0361 19.5 19.5 19.5Z" fill="#00A8FF"/>
</svg>
