<svg width="15" height="11" viewBox="0 0 15 11" fill="none" xmlns="http://www.w3.org/2000/svg">
<path d="M0.671387 5.1167L2.50812 6.86927L5.67139 3.77649" stroke="#525252" stroke-width="0.5"/>
<path d="M9.67139 5.93372C10.9184 5.93372 12.1505 6.36051 12.9952 7.19437C13.9139 8.11333 14.3861 9.22238 14.4195 10.4337H9.67139H4.92876C4.99794 9.25497 5.54847 8.09477 6.34706 7.30603C7.20161 6.46203 8.43901 5.93372 9.67139 5.93372Z" stroke="#525252" stroke-width="0.5"/>
<path d="M9.67139 4.68372C10.776 4.68372 11.6714 3.78829 11.6714 2.68372C11.6714 1.57915 10.776 0.683716 9.67139 0.683716C8.56682 0.683716 7.67139 1.57915 7.67139 2.68372C7.67139 3.78829 8.56682 4.68372 9.67139 4.68372Z" stroke="#525252" stroke-width="0.5"/>
</svg>
